<svg id="Layer_1" data-name="Layer 1" xmlns="http://www.w3.org/2000/svg" width="1131" height="632" viewBox="0 0 1131 632"><defs><style>.cls-1{fill:#cda9a5;}.cls-2{fill:#cabac4;}.cls-3{fill:#a68587;}.cls-4{fill:#fff;}.cls-5{stroke:#000;stroke-miterlimit:10;}</style></defs><rect class="cls-1" y="70" width="1131" height="342"/><path class="cls-2" d="M680.57,69.87,619.81,218.71a2.49,2.49,0,0,0,.19,2l-.39.42a5.49,5.49,0,0,1-4.14-1.43c-1.09-.95-1.74-2.15.45-2.58,1.28-.26,1.56-1,1.58-2.15,0-2-1.71-4.15-3.46-4.29s-4.36,2.28-4.51,4.17c-.09,1.05.21,2.3-1.24,2.66-1,.26-2.26.31-2.77-.58-1-1.75-2.36-3.69-1-5.78,1.29-1.94.4-3.86.36-5.8a1.46,1.46,0,0,0-1.21-1.42c-.88-.14-1.06.64-1.26,1.27a14.54,14.54,0,0,0-.38,1.44C601,212,601,212,596,210.55c-2.1-.63-2.6-2.11-.82-3.38s2.74-2.38,2.82-4.58c0-.93.74-1.82-.11-2.72a1.59,1.59,0,0,0-2-.48c-1.06.63-2.32,1.34-2.17,2.78.26,2.52-1.07,2.64-2.91,2.18s-2.88.28-2.75,2.28a10,10,0,0,1-.7,3.91c-.49,1.43.19,2,1.56,2.09a6.26,6.26,0,0,0,2.62-.69,2.33,2.33,0,0,1,3.18,1.15c1.84,3.36,1.45,4.24-2.27,5.11a3.39,3.39,0,0,0-1.69,1c-1.27,1.27-1.87.57-2.14-.78a13.24,13.24,0,0,0-.53-2.68c-.79-1.87-1.59-3.4-4.17-2.65a4.87,4.87,0,0,1-3.66-.35c-1.06-.57-1.49-1.15-.44-2.29,1.86-2,1.52-4.32-.75-5.83a4.32,4.32,0,0,1-1.57-1.55c-1-1.89-2.12-1.58-3.63-.53a17.18,17.18,0,0,1-5.82,3.09c-1.68-6.7-2.25-13.56-2.77-20.44A111.23,111.23,0,0,1,563,201.71c-1.38,6-1.4,12.44-5.06,17.82-.39.57-.43,1.12.51,1.19a.85.85,0,0,0,.37.18c.71,6.8.12,13.6,0,20.4,0,.75-.52,0-.78-.16-.22-7.87-1.74-15.61-2.28-23.45,0-.36,0-.72,0-1.08.2-2-.42-3.93-.58-5.9a1.7,1.7,0,0,0-.1-1.58l0-1a1.16,1.16,0,0,0-.08-1.47c-.13-1-.26-2-.38-3a.82.82,0,0,0-.12-1,66.55,66.55,0,0,0-.8-10,3.23,3.23,0,0,0-.2-2.53,6.91,6.91,0,0,0-.36-3,1.44,1.44,0,0,0,0-1.57,23.61,23.61,0,0,1-.52-6.49.64.64,0,0,0-.06-1,20.58,20.58,0,0,0-.43-5,.66.66,0,0,0-.09-1c-.28-3-.56-6-.83-9a1.62,1.62,0,0,0-.15-1.55c0-.5,0-1,0-1.51.41-.34.41-.67,0-1-.07-.65-.15-1.3-.22-1.95.2-4.29.2-8.59,0-13.58-1,4.94-.57,9.3-.93,13.6a16.82,16.82,0,0,0-.73,4.93,1.8,1.8,0,0,0-.13,2c-.12,1-.23,2-.35,3a2.09,2.09,0,0,0-.22,2c-.09.65-.18,1.3-.28,2a1.52,1.52,0,0,0-.21,1.55,4.65,4.65,0,0,0-.28,2.45,2.08,2.08,0,0,0-.27,2l-.24,1.46a1.4,1.4,0,0,0-.21,1.55l-.24,2.39-.2,1-.15,1.48a17.82,17.82,0,0,0-.49,1.91q-2.38,18.17-4.73,36.33c-.7,5.47-2.59,10.76-2.4,16.35-.39,1.26.17,2.69-1,3.93q-.72-5.43-1.46-10.87c.89-.54.61-.88-.19-1.12l-.2-1a2,2,0,0,0,2.32-1.68,20.28,20.28,0,0,0,.35-6.4,1.88,1.88,0,0,0-1.87-1.93c-1.07-.13-2.16-.56-3,.43s.39,1.6.59,2.4c.13.48.3,1,.45,1.42v1.27c-2.19-.48-4.07-1.17-3.2-4.09a1.4,1.4,0,0,0-1-1.78,5.93,5.93,0,0,0-6,1.62,4.39,4.39,0,0,1-3.92,1.77,3.35,3.35,0,0,0-3.76,2.53c-.7,2.11-2.23,2.55-4.08,1.27a8.4,8.4,0,0,0-4.45-1.33c-3.1-.24-6.15.79-9.2.45a14.58,14.58,0,0,0-6.8,1c-2.26.84-4.42,1.56-6.53-.33a2,2,0,0,0-1.4-.37c-3,.33-6.17.07-8.93,1.74-1.19.71-2,1-2.82-.73-1.05-2.07-4.89-2.23-6.35-.58-1.23,1.38-2.74,1-3.57-1-.26-.59-.22-1.46-1.13-1.36s-.9.89-.9,1.55c0,2-1.34,2.6-3,3.12-3.1,1-6.27-.38-9.36.45-.47.13-1.23-.12-1.28-.56-.19-1.94-2-3.11-2.31-4.84-.47-2.44-2.1-2.55-3.9-2.31-1.3.18-2.54.79-3.84,1.05-3.25.64-6.54,2.16-9.66-.53a2.83,2.83,0,0,0-2.36-.56c-3,1.12-5.92.26-8.88.34-.55,0-1.1.37-1.66.43-3.41.33-6.53,2.23-10.16,1.62-2.1-.35-4.27-1-6.43-.55-3.38.66-6.59,0-9.82-.81-1.75-.41-3.41-.46-4.91.92a2.62,2.62,0,0,1-3.64.1,6.36,6.36,0,0,0-3.47-1.26c-4.92-.23-9.83.09-14.8-.28-11.36-.84-22.78.67-34.18.31a3.75,3.75,0,0,0-1.71.24,5.39,5.39,0,0,1-5.26-.37c-3.28-1.93-6.36-1.36-9.5.16-3.45,1.67-4.79,1.1-5.85-2.6-.29-1-.55-1.56-1.66-1.11a11.82,11.82,0,0,1-9-.3c-1.42-.56-2.58-.57-3.39.94a1.23,1.23,0,0,1-1.88.57c-1.18-.7-2.13-.15-3.26.3-3.34,1.33-6.74,2.35-10.17,0-2.1-1.41-4.54-1.45-7-1.39-1.53,0-2.45.75-2.58,2.15-.2,2.25-1.29,2.62-3.21,2-.61-.2-1.34,0-2-.15-2.72-.65-5.66,0-8.22-1.64-3-1.89-6.22-3.29-9.8-2.76a11,11,0,0,1-7.14-1.14c-1.18-.64-2.39-.84-2.91,1-.34,1.15-1.32.87-2.27.9-4.18.15-7.89-1.72-11.84-2.55-2.06-.44-4.36.47-6.11-.69s-2.93-.69-4.43-.18a10.61,10.61,0,0,1-1.65.54c-.56.1-1.26.22-1.63-.31s.09-1.09.4-1.57,1.34-.78.84-1.58-1.33-.33-2.06-.28c-2.66.19-5.31.35-7.37-1.89a1.54,1.54,0,0,0-2.42-.06c-2.1,2.08-4.48,1.62-6.64.45a8.74,8.74,0,0,0-4.72-1.21,15.62,15.62,0,0,1-3.49-.08,3.17,3.17,0,0,1-2.6-2.95c0-1.52,1.51.21,1.82-.17,1.33-1.63,2.54-3.31,4.49-4.34.2-.1.66-2.07-.89-2.34-1.24-.22-2.55-.38-3.14,1.21-.35.93-.69,2.59-1.49,2.36-2-.58-4.17.55-5.85-.4-3.69-2.08-7.81-1.27-11.66-1.92a19.76,19.76,0,0,1-6.59-2c-3.89-2.36-7.77-1.54-11.54-.93a8.61,8.61,0,0,1-5.69-.73,16.52,16.52,0,0,1-3.49-3.17c-1.12-1.14-2.17-1.36-3.46-.23s-3.44,1.15-5,1.82c-3,1.28-5.63,1.57-8.28-.58-.26-.21-.82-.1-1.23-.07-1.47.12-2.41-.28-2.41-2,0-1-.72-1.43-1.67-1.49-.67,0-1.49.05-1.85-.56-1.58-2.73-3.38-2-5.37-.53-.83.59-1.84.93-2.62-.22-.88-1.3-.52-5.24.75-6,2.25-1.4,4.55-2.59,7.46-2.07a10.06,10.06,0,0,0,9.11-2.44c.92-.88,1.81-.48,2.78-.27s1.25.46,1.16,1.5c-.15,1.82,1.31,1.7,2.44,1.53s2.48-.55,2.16-2.37-1.21-3.29-3.27-3.51a2.38,2.38,0,0,1-1.93-1.35,6.92,6.92,0,0,0-9.8-2c-3.31,2.09-5.52,1.95-8.33-.58a1.77,1.77,0,0,0-1.34-.55c-2.08.19-3.25-.89-4-2.71a1.7,1.7,0,0,0-2.19-1.17,16,16,0,0,1-4.46.36c-1.63.05-2.77.74-2.93,2.44a2.37,2.37,0,0,1-1.46,2.16c-2.77.85-5,2.88-7.72,3.68-1.11.32-2.23.37-2.92-.72s.46-1.6,1-2.25c1.4-1.68,1.28-2.31-.77-3a14,14,0,0,0-5.14-.85c-.84.05-1.7,0-2.17-.87-1.51-2.9-1.09-6.07-1.18-9.15a2,2,0,0,1,2-1.86c1.42-.13,1.73-.88,1.78-2.16.17-4.38.21-4.38-4.19-4.44-.34,0-.67,0-1,0-3.9-.37-6.25-2.79-6.36-6.5,0-1.3-.32-2.51-1.83-2.91-1.26-.33-3,.59-3.75-.61s.92-2.25,1.27-3.52c.76-2.82-.68-5.58.36-8.39s1.47-3.35,4.43-2.82a42.23,42.23,0,0,0,4.2.51c.8.07,1.57-.43.77-1.11-1.48-1.25-2.75-3.37-5.32-2a1.82,1.82,0,0,1-2.85-1c-1.3-3.78-1.66-4.1-5.49-4.13-3.21,0-3.93-.73-4.24-4.15-.28-3.12.76-4.69,3.47-5.24s3.3-1.34,2.76-4c-.34-1.69-.43-3.08,1.1-4.49,1.74-1.62.62-6.56-1.79-7.87,2.69-.07,3.18-1.88,3.37-3.73.24-2.38,1.6-3,3.74-3,1.09,0,2.24.86,3.17.24,1.91-1.27,3.82-1.22,5.94-.8a2.82,2.82,0,0,0,2.91-1.59A2,2,0,0,0,72,83c-1.45-1.24-3-2.38-4.55-3.47a1.48,1.48,0,0,0-2.06.25c-2.2,2.88-5.63,3-8.69,3.83-2,.54-2.52,1.41-1.69,3.15.38.81.68,1.53.08,2.31s-1.64.72-2.53.52a6,6,0,0,1-2.67-1.28C48.49,87.06,47,86,45.58,84.84c-3.54-3-7.44-2.38-11.25-.93-2.17.83-3.95,1-6.08-.17a18,18,0,0,0-11-2.49c-2.47.28-5,1.2-6.43,3.26-.71,1-1.06,2.31-2.25,3-1,.61-1,1.66-1,2.69a7.26,7.26,0,0,1-.3,3C6.79,94.31,6.06,95,5,94c-1.6-1.43-3.5-1.36-5.42-1.33q0-46.24,0-92.48c0-1.72.34-2.05,2.05-2.05q563.44.07,1126.89,0c1.71,0,2,.33,2,2.05q-.09,103.49,0,207a56.37,56.37,0,0,0-16.74.92c-2.27.46-4.57,1.56-7,.64a1.15,1.15,0,0,0-1.63,1.06c0,2.29-1.44,2.41-3.19,2.4a8.85,8.85,0,0,0-8.36,7.9c-.1,1.24-.3,2-1.8,2.1-4.42.19-8.78,0-12.94-1.71-1-.4-1.78-1-1.48-2.24.25-1.07,4.6-3.19,5.37-2.5,1.2,1.09,2.67.81,4,1.22s2.18,0,2.29-1.43c.09-1.26.22-2.66-1.6-2.81-2.82-.22-5.63-.46-8.45-.51a3.83,3.83,0,0,0-4.11,4.23c.2,1.94-.58,2.77-2.21,3.3a5.51,5.51,0,0,0-2.8,1.57,3.42,3.42,0,0,1-3.31,1.34c-2.2-.33-3.42,1.13-4.55,2.51-2,2.42-3.72,2.36-4.76-.63-.59-1.7-1.64-1.61-3-1.91-5.09-1.14-9.29,1.89-13.87,3-4.42,1-4.29,1.61-7.16-1.91-1.58-1.95-3.24-2.06-5.08-.28-1.08,1-2,2.19-3.08,3.28a4.76,4.76,0,0,1-4.78,1.28c-1.83-.42-1.75-2-1.72-3.41,0-.42,0-.83,0-1.25a1.6,1.6,0,0,0-1.86-1.58c-1,0-2.3-.42-2.58,1.2-.39,2.3-1.93,2.79-4,2.8-3.39,0-6.77-.23-10.15.81-4.7,1.45-8.76-.39-12.32-3.42-2.59-2.2-5.88-1.69-7.94,1-1.15,1.51-2.22,3.7-4.6,3.35-3.4-.5-6.75.45-10.09.1S958,227.32,955,225a4.91,4.91,0,0,0-5.53-.3c-1.57,1.13-2.65,1.27-4.2.36a6.35,6.35,0,0,0-2.17-.43c-2.55-.39-4.37,1.41-6.49,2.26a2.86,2.86,0,0,1-3.44-.51c-1.89-1.47-4-3.57-6.9-2.33-5.33,2.28-7.59,2.73-12.93-2.57a1.85,1.85,0,0,0-2.48-.27c-1.92-.45-2.6-1.65-2.52-3.61.12-2.64,0-5.28-.06-7.93.77-.39.7-.76-.05-1.09L907.61,188c2.74.63,2.7.63,2.56-2.19a15.49,15.49,0,0,1,.3-2.69h0c.81,0,1.45-.17,1.47-1.15.21-1.07.71-2.11.27-3.23.58-3.48.42-4-2.7-5a2.7,2.7,0,0,1-2.12-3.08c.15-5.56-.71-11.11-.35-16.68,0-.53.18-1.2-.6-1.51-1.07.92-.5,2.15-.57,3.24-.05.89-.36,1.05-1,.43-.79-1.3-.63-2.79-.86-4.2q-3-19-6.07-38Q895,95.85,892.2,77.72c-1.53-9.84-3.34-19.64-4.23-29.58a61.94,61.94,0,0,0-.55-13.94c-.45,4.65-1.27,9.28-.47,13.95-.16,1-.33,2-.5,3-.33.32-.4.64,0,1l-.38,6.1a1.83,1.83,0,0,0-.18,2.38c-.09,1-.19,2-.29,3-.43.28-.57.61-.15,1-.12,1-.23,2-.34,3a1,1,0,0,0-.17,1.53l-.3,2.46a2,2,0,0,0-.24,2.55l-.23,1.94a1.38,1.38,0,0,0-.27,2l-.33,2c-.41.27-.47.59-.12,1-.07.66-.15,1.32-.22,2-.84.56-.76,1.26-.3,2-.07.66-.15,1.32-.22,2a1.89,1.89,0,0,0-.33,2.52c-.07.66-.15,1.32-.22,2a1.94,1.94,0,0,0-.26,2.53c0,.33-.1.66-.14,1-1.14,1.3-.63,2.79-.51,4.24-.06.44-.12.88-.17,1.33a1.42,1.42,0,0,0-.18,2l-.21,1.45a2.55,2.55,0,0,0-.42,2.79l-.22,2.3c-.41.26-.52.58-.15,1-.11.84-.21,1.68-.31,2.53a.89.89,0,0,0-.18,1.47l-.25,1.95c-.85.82-.65,1.79-.39,2.77,0,.43-.11.87-.16,1.3a.92.92,0,0,0-.14,1.48l-.33,2.43a1,1,0,0,0-.25,1.56l-.23,1.94a1.38,1.38,0,0,0-.23,2.06c-.1.65-.19,1.29-.29,1.94a1.4,1.4,0,0,0-.2,2.06l-.25,1.94a1.85,1.85,0,0,0-.31,2.56l-.23.93a3.33,3.33,0,0,0-.26,3.56c.1,2.08-.77,3-3,2.76a19.31,19.31,0,0,0-3.46.21c-.34-.39-.65-.31-.94.07-2.09.48-3.12-.19-2.79-2.47.12-.8.09-1.62.13-2.43a4.43,4.43,0,0,0-.07-4.69c-.35-1.33-1.49-2.41-1.27-3.93a1,1,0,0,0-.19-1.57l-.51-2.74c.1-1.66.63-3.37-.9-5.3a24,24,0,0,0-.46,6.61l-.41,2.53c-.41.27-.49.59-.12,1-.64,2.82-1.61,5.59-1,8.55-.77,1.64-.18,3.37-.33,5.05l-5.12.4a.56.56,0,0,0-1,.07c-1.32,0-2.65.5-4-.09.26-1.8-.08-3.62.28-5.44.23-1.18-.67-2.21-1.47-3s-1.75-.22-2.62-.08a.69.69,0,0,0-.52,1c.85,3,0,6.12.72,9.12,0,.33,0,.66,0,1,0,2.65.06,5.31-.11,8-1.18,17.51-1,35.09-2.66,52.58l.29,1c0,2.55,0,5.11.12,7.66.16,3.11-.45,6.26.49,9.33.14.83.27,1.67.41,2.5l.13.55.14,1.83c-.1,1.21-.21,2.41-.31,3.62-4.45-1.13-5.69-2.9-5-7.37.35-2.41-.24-4.23-2.66-5.22a11.6,11.6,0,0,1-3.7-2.49c-1.22-1.18-4.71-1.41-5.81-.3-3.77,3.8-7.76,6.19-13.49,4.19-1.28-.44-2.27-.55-2.83-1.81-.07-5.33.21-10.68-1.32-15.93l-.58,16c.93,1.86-.66,3.58-.3,5.4-.56.09-1.75,1.9-1.39-.55a21.24,21.24,0,0,0,.1-3.48c0-.66,0-1.46-.83-1.62s-1.42.57-1.52,1.31c-.26,2.1-1.67,2.59-3.45,2.9a67.85,67.85,0,0,1-16,.43,3.93,3.93,0,0,1-3.61-3c-.73-2-2-2.58-3.77-1.44-1.14.76-1.76,1-2.43-.49-.57-1.3-1.4-1.37-2,.09-.39,1-.81,1.88-2.09,1.78l-.81-3.42c.92-1.3.43-2.26-.73-3.07a13.26,13.26,0,0,1-.78-3.94c.46-.08,1.19.06,1.19-.58,0-1-.86-1.29-1.71-1.43-.63-2.15-1.25-4.29-1.87-6.44a.83.83,0,0,0-.2-1c-.56-1.83-.77-3.77-1.75-5.47-1.34-7.06-2.81-14.11-3.48-21.3-1.45,3.39-.8,7-1.77,10.39-1.08,3.79-.9,7.88-2.71,11.55a4,4,0,0,0-.49,3.34l0,1a.84.84,0,0,0-.2,1,118.79,118.79,0,0,0-3.5,14.42c-1.47,3.73-1.82,7.73-2.64,11.61-1.52,7.24-2.89,14.52-4.49,21.74-1.69,7.61-2.55,15.44-5.79,22.65a1.37,1.37,0,0,0-.79,1.85l-.22,1.15c-1.73-.56-2-1.57-.82-2.92.35-.39.86-.73.5-1.23-1.34-1.81-.43-3.49.25-5.16a3.18,3.18,0,0,0,0-2.37c-1-3.22-4.3-3.83-6.52-5.64-.75-.62-1.58.26-2,1.24a5.48,5.48,0,0,1-6.66,2.95c-.65-.21-1.32-.54-1.92-.16-2.35,1.52-3.05,0-3.64-1.87-.85-2.7-4.26-2.79-5.39-5.23-.06-.12-.48-.13-.71-.09a2.46,2.46,0,0,1-2.86-1.57q0-13.69,0-27.38c.76-.32.81-1,.77-1.65M667.11,24.78"/><path d="M368.46,414.89,388.3,428c4.66,1.11,9.42,1.78,14.13,2.7a12.1,12.1,0,0,1,3.54,1.12c3.5,2,7.22,1.64,10.83.91,1.34-.27,2.4-1.94,3.91-3.26l-3.5-1.85c.81,0,1.46,0,2.11,0,1.33,0,1.77-.5,1.48-1.85a26.93,26.93,0,0,1-.27-3.75l-1.2-.9,4-2.23a12.6,12.6,0,0,1-.35,2.88c-.59,1.62-.95,6.61,1.19,8a4.87,4.87,0,0,0,3.76.76c15-6.11,30-12.4,45-18.59,3.71-1.54,5.33-4.54,5.69-8.16,1.4-14.08,2.75-28.17,3.8-42.28a8.6,8.6,0,0,1,2.32-6,152.11,152.11,0,0,0,12.8-16.27c1.7-2.49,2.12-5.87,3.05-8.66.22,2.36.47,5.1.72,7.84l1.05-.07c.16-11.41-.71-22.93,3.29-34.15l.8,1.32,1.33-3.6.66,1.9c.36-1,.55-1.52.74-2.05l.57-1.64c.27.76.56,1.55,1.06,3,.57-2.2,1-3.8,1.46-5.62l.86,1.91c.5-1.66.86-2.85,1.31-4.32.3,1,.53,1.76,1,3.13.62-2.1,1.08-3.68,1.62-5.52.26.84.47,1.51.67,2.17l.51,0c.42-1.51.84-3,1.4-5.07.2,1.13.32,1.77.44,2.41l.6.14,1.33-4.43.83,2.54.54,0c.15-1.11.38-2.21.44-3.32s-.08-2.3-.07-3.45c0-2,.54-3.52,3.31-2.57.07-1,.15-1.83.17-2.63.18-7.24.62-14.49.4-21.72a22.28,22.28,0,0,1,1-8.43c1.94-5.64,2.94-11.61,4.19-17.47a53.78,53.78,0,0,0,.6-6.17c1.3,8.6,2.52,16.64,3.74,24.68l1-.08c-.07-1.37,0-2.76-.22-4.13s-.88-2.67-.72-3.93c1.23-9.69,2.71-19.34,4-29,2.22-17.42,4.31-34.85,6.47-52.28.38-3.06.84-6.11,1.19-8.64,2.56,29.86,5.16,60.24,7.77,90.63l.6,0a8.26,8.26,0,0,0,.25-1.46c.11-5.74.25-11.49.25-17.23a13,13,0,0,0-1-3.29c4.47-10.22,5.54-21.69,7-33.67a11.63,11.63,0,0,1,.58,1.65c1.21,8.71,2.34,17.43,3.67,26.11.24,1.58,1.42,3,1.91,4.56a5.6,5.6,0,0,1-.25,2.53c-.1.53-.58,1-.59,1.53q-.09,14.83-.1,29.68c0,1.15,0,2.37,1.7,2.52.35,0,.83,1,.87,1.57.11,1.65-.11,3.32.07,5a18.06,18.06,0,0,0,1.07,3.5c0,.15.23.26.27.41.59,2.34,1.15,4.69,1.77,7,.15.59.45,1.62.71,1.63,3.53.09,3.48,3,2.92,4.82-1.13,3.65,2.2,6.16,1.75,9.6,3.19-3.68,2.09-8.69,4.36-12.83.62,3.27,1.22,6.4,2,10.2l1.46-2.72c.38,1.49.77,3,1.34,5.2.79-3.28,1.42-5.87,2.22-9.18.95,5.23,1.91,9.73,2.55,14.27a46,46,0,0,1,.15,7.43c-.14,5.26-.62,10.52-.51,15.76.2,8.81-.27,17.6-.51,26.4-.07,2.29.5,3.1,3,3.32,4.89.44,8.82-2.15,13.15-3.46,3.1-.95,6.1-2.24,9.18-3.23a2.21,2.21,0,0,0,1.8-2.5c.06-9.08.45-18.16.25-27.22-.19-8.82.54-17.6.51-26.4s.2-17.65.31-26.48.16-17.82.35-26.72a6.47,6.47,0,0,0-1.78-4.68,7.1,7.1,0,0,1-1.63-4.19c0-9.32.26-18.65.27-28,0-1.54-1-3.07-1.25-4.64-.25-1.27-.62-2.78-.16-3.86,1.21-2.82,3.09-5.35,4.21-8.19a20,20,0,0,0,1-6.47c0-1.33-.61-2.51,1.53-2.89.65-.12,1.19-2,1.4-3.14a10.39,10.39,0,0,0-.19-3.46c-.25-1.45-.39-2.56,1.6-2.92.57-.1,1.13-1.55,1.25-2.44a14.5,14.5,0,0,0-.09-4.21c-.24-1.48-.34-2.42,1.52-3,.73-.22,1.19-2,1.35-3.16a16.77,16.77,0,0,0-.29-3.71c-.11-1.11-.21-1.92,1.32-2.44.83-.28,1.44-2,1.65-3.11a12.67,12.67,0,0,0-.31-3.7c-.17-1.33-.33-2.46,1.62-2.64.5,0,1.17-1.32,1.26-2.1a15.23,15.23,0,0,0-.1-4.21c-.23-1.53-.43-2.56,1.64-3.12,1.55-.41,1.18-2.18.19-3a6.3,6.3,0,0,1-2.35-6.16,1.71,1.71,0,0,0-.46-1.36c-2.43-1.81-1.93-4.41-1.91-6.86.07-6.66.55-13.34.18-20-.33-5.81,3-10.57,3.1-16.15l.79,0c.39,1.64.79,3.28,1.27,5.28l1.5-2c.69,2.9,1.32,5.57,2,8.24l.63,0,1.32-5.38c1.08,4.66,2.2,9.54,3.47,15a13.82,13.82,0,0,0,.91-1.81c4.11-14.41,8.16-28.83,12.3-43.23,1.66-5.8,3.63-11.51,5.15-17.34.43-1.65-.23-3.58-.42-5.38,0-.4-.41-1.05-.29-1.14,2.71-1.95,1.06-4.86,1.65-7.26,0-.06.13-.09.7-.44,0,.88,0,1.5,0,2.11-.06,1.85-.84,3.8,1,5.35.22.2.33,1,.16,1.13-3,2.78-1.16,6.09-.56,8.9,1.26,5.9,3.29,11.64,4.93,17.46q9,32.09,18.08,64.18a32.89,32.89,0,0,0,1.56,3.3,15.11,15.11,0,0,1,.46,2q1.05,3.75,2.13,7.48a11.63,11.63,0,0,1,.48,1.56,29.46,29.46,0,0,0,.53,4.14c1.44,4.64,3.12,9.21,4.52,13.86.64,2.12.7,4.4,1.27,6.53,1.63,6.11,3.43,12.16,5.08,18.26s3.53,12.09,6.86,17.51a4.08,4.08,0,0,1,0,4.61,11.76,11.76,0,0,0-1.44,5.11c-.07,8.83,0,17.65.16,26.48,0,2.06-.16,3.91-1.95,5.34-1.45,1.15-1.82,2.77-1.81,4.66q.09,34.09,0,68.19c0,2.18.45,3.08,2.91,3,8.65-.41,17.31-.64,26-.82,1.93,0,2.61-.61,2.53-2.6-.17-4.24-.1-8.49-.14-12.74,0-1.55.29-3.16-1.44-4.22-.33-.21-.33-1.4-.1-2,4.52-11.55,6.25-23.77,8.78-35.81,2.82-13.43,6-26.79,9-40.19,1.17-5.27,2.29-10.55,3.31-15.85a84.28,84.28,0,0,1,1.87-9.14,23.89,23.89,0,0,1,.46,3c.22,8.79,3.19,17,5.29,25.38,1.46,5.81,2.7,11.68,4,17.52.07.32,0,.82.2,1,3.31,2.37,1.46,6,2.21,9s1.26,6,1.83,9c1.14,6,2,12,3.46,17.89s3.53,11.76,5.43,17.61c.36,1.12.66,1.84-.41,2.82a4.25,4.25,0,0,0-1.12,2.86c.14,17.23.37,34.46.54,51.7a2.88,2.88,0,0,0,2,3c2.29.91,4.52,2,7.16,3.12-.14-4.11.5-7.78-2.55-10.81a6.05,6.05,0,0,1-1.42-3.79c-.24-5.57-.21-11.15-.39-16.73a33.25,33.25,0,0,0-.78-3.58,17.17,17.17,0,0,1-.1-3c0-1.7.56-3.51.14-5.08a9.86,9.86,0,0,1,.49-6.49c3.86,1,4.12.75,5.1-3,3.39-13.13,6.86-26.24,10.26-39.36,1.65-6.37,3.49-12.7,4.68-19.15.84-4.57.71-9.31,1-14,.16-2.28.41-4.55.73-6.81.37,6.1.54,12.22,1.2,18.28.35,3.19,1.49,6.3,2.38,9.41q6.4,22.45,12.89,44.87c.19.68.52,1.32,1.07,2.69,4.18-15,8.83-29.11,8.09-44.24.31,4.61.3,9.26,1,13.79.81,5.23,2.15,10.39,3.44,15.53s2.81,10.27,4.24,15.4a3.83,3.83,0,0,0,1.23,2,15.18,15.18,0,0,0,.17-1.76c-.41-17.48-.74-35-1.3-52.43-.26-8.23-1.17-16.43-1.36-24.65-.1-4.69.87-9.4,1-14.12.57-17.54,1-35.09,1.47-52.64a41.08,41.08,0,0,0-.34-4.43c3-1,4.56.23,4.26,3.36-.5,5.14-.49,5.22,4.71,4.78,6.42-.54,5.72,1,5.49-6.42-.07-2.5.69-5,1.07-7.56.4-2.69.79-5.38,1.17-7.94.89,3.91,2,7.88,2.65,11.92a39.43,39.43,0,0,1,.07,7.21c0,1.41.51,2,1.92,1.86,2.15-.18,4.34-.14,6.46-.52.63-.11,1.43-1.26,1.53-2,1-7.09,1.83-14.19,2.7-21.3,2.33-19,4.76-38,6.92-57,.81-7.13,1-14.33,1.44-21.49,0-.27.33-.52.62-1,.3.36.64.58.65.81.29,4.1.3,8.22.85,12.28,1.3,9.73,2.77,19.43,4.31,29.13q5.42,34.26,11,68.51a8.49,8.49,0,0,0,1.49,3.57l.42-4,.68,0c.06.67.14,1.34.16,2,.14,5.49.32,11,.35,16.47,0,1.66,1,2,2.22,2.52,3.28,1.28,4.5,6.63,1.68,8.73-3.51,2.62-4,5.8-3.78,9.77.46,8.4.57,16.81.75,25.21,0,1.54.27,2.79,1.87,3.42a2.06,2.06,0,0,1,.76.62c1.24,1.56.69,9.16-.51,10.76a6.54,6.54,0,0,0-1.52,3.63c.33,13.9.83,27.79,1.22,41.69a4.66,4.66,0,0,1-.68,3.05c-1.72,1.82-1.54,3.89-1.48,6.05.29,10.07.57,20.14.77,30.21,0,2,.57,2.73,2.73,2.67,27.81-.77,55.62-1.41,83.42-2.15,12.82-.34,25.63-.87,38.45-1.21a5.58,5.58,0,0,1,3.32,1.18c5.45,4.37,10.8,8.87,16.19,13.32.43.36.92.65,1.6,1.11a70.75,70.75,0,0,0-.07-8c-.3-2.47.56-5.2-1.47-7.4-.26-.29.22-1.38.5-2,4.55-10.84,6.86-22.24,8.29-33.82.42-3.38.07-6.85.49-10.31-.32,12.84,4.4,24.48,8.46,36.24.91,2.64,2.66,5,3.87,7.53a4.65,4.65,0,0,1,0,2.37,16.51,16.51,0,0,0-.52,2.61c.53,11.88,1.13,23.77,1.66,35.66a3.74,3.74,0,0,0,2.09,3.28,27.73,27.73,0,0,1,5.26,4.72c2.21,2.47,2.84,2.5,6,1.33,7-2.64,13.78-6.32,21.45-6.77,2-.11,4.12.95,6.17,1.49s4.11,1.09,6.15,1.69c.86.26,1.66.73,2.51,1,1.76.57,3.53,1.07,5.3,1.6V633H-1.66q0-43.85,0-87.68,0-16.6.16-33.21c0-2.08-.85-5,3.08-4.69-.45-.07-.89-.18-1.34-.21-1.76-.12-2.14-.88-1.36-2.47a9,9,0,0,0,.37-2.49l.57-.16c-.46-1-1.27-1.94-1.27-2.89q-.1-49.91-.05-99.82c0-13.65.24-27.29.43-40.94A8.37,8.37,0,0,1-.25,356c.66.63,1.67,1.16,1.91,1.92.74,2.38,2.7,2.83,4.51,2.55,2.48-.39,4.24.14,5.61,2.5l1.7-2.07c2,1.92,3.82,3.9,5.88,5.65a5.11,5.11,0,0,0,2.95.84c2,.07,4-.26,6-.1.84.07,1.61,1,2.41,1.51.51.34,1.17,1.08,1.5.95,2.51-.95,3.69.71,5,2.27a14.82,14.82,0,0,0,1.05,1.11,22.33,22.33,0,0,1,2.87-3.84A3.76,3.76,0,0,1,44,369c.3.06.54,1.59.39,2.38-.33,1.68-.92,3.32-1.44,5.12,2.25.56,3.39-.64,4.3-2.42a4.42,4.42,0,0,1,5.81-1.79A33.37,33.37,0,0,0,50.65,376,1.75,1.75,0,0,0,52,378.62a33.56,33.56,0,0,0,4.68.55c3.52.2,4.22,1.08,3.65,4.58-.07.43.38.95.57,1.44a7.8,7.8,0,0,1,.81,2.23c.22,3.76.31,3.86,3.53,2,1.46-.84,2.15-.34,2.56,1.07s-.25,2.14-1.61,2.07c-2.5-.14-4,.72-4.13,3.43,0,.49-.91,1.4-1.17,1.33a4.14,4.14,0,0,1-2.2-1.32c-2-2.8-2-2.89-5-1.31a10,10,0,0,1-7.72,1,3.74,3.74,0,0,0-4.42,1.3c-.62.76-1.92,1-2.95,1.37a10.89,10.89,0,0,0-2.47.83c2.9.11,5.82,1.23,8.63-.5.41-.25,1.6-.12,1.68.11.67,1.81,1.82.87,3,.89a54,54,0,0,1,8.31.91c5.38.91,10.7,2.68,16.08,2.83a152.07,152.07,0,0,1,26.49,2.79c9.08,1.85,18.32,2.92,27.52,4.16,1.74.24,3.59-.42,5.4-.47,6.45-.18,13,.79,19.29-1.3,1.57-.52,3.16-1.4,4.73-1.37a11.53,11.53,0,0,1,5.45,1.4c3.09,1.79,6.11,1.58,9.39.91a45.77,45.77,0,0,1,10.35-1.39c5,.13,10.1.69,14.64,3.15,8.66,4.68,18.1,6.11,27.7,7.26a46.11,46.11,0,0,0,17-.88,1.34,1.34,0,0,1,.74,0c4.94,2,10.27,1.19,15.34,2.17a4.15,4.15,0,0,1,1.39.54,12.15,12.15,0,0,0,9.75,1.64c3.71-.88,6.76,1.58,10.09,2.84a48.2,48.2,0,0,0,12.15,2.85c6.87.68,13.8.78,20.71,1a15.81,15.81,0,0,0,3.58-.53c3.22-.65,6.42-1.52,9.67-2,4-.53,8.09-.71,12.14-1.07s7.93-.62,11.86-1.15a8.82,8.82,0,0,0,4.25-1.67c4.21-3.5,8.63-5.3,13.28-3M382,423.14,792.3,364.67c0-3.64,0-6.91,0-10.17a1.1,1.1,0,0,0-.54-.77c-2.59-1.2-5.2-2.36-8.13-3.67,0,3.54,0,6.58,0,9.61a1.85,1.85,0,0,0,.84,1.37C787,362.28,789.54,363.4,792.3,364.67ZM733.15,322c0-4.62-2-7.05-5.86-7.57-4.57-.61-9.2,1.62-10.29,5.62C722.46,320.46,727.54,321.47,733.15,322Zm50.28,17.87c0,3.21,0,5.77,0,8.33a1.62,1.62,0,0,0,.63,1.26c2.64,1.28,5.34,2.46,8.45,3.86,0-2.32.11-4,0-5.77-.12-1.36-.12-3.38-1-3.92C789.24,342.07,786.52,341.19,783.43,339.82Zm-163.83.41-15,5.57a9.55,9.55,0,0,0,2,.81q3.93.19,7.86.27c6.48.13,5.85,1.65,5.54-6.05C620,340.76,619.91,340.69,619.6,340.23ZM784,362c-.56,3.71-.53,3.63,2.22,4.93,2.59,1.22,5.85,1.74,6.38,5.5a48.71,48.71,0,0,0,.11-5.9,1.58,1.58,0,0,0-.81-1.12C789.32,364.21,786.75,363.14,784,362Zm140.35-5.67a19.21,19.21,0,0,0,.6,4.51c.16.44,1.79.33,2.73.48C928.27,356.59,928.08,356.25,924.31,356.28Zm60.4-1h-3.08c-.66,4.56-.25,5.15,3.3,4.53C984.86,358.32,984.78,356.8,984.71,355.28Zm58.48,3.56a45.89,45.89,0,0,0-1-4.88,4.48,4.48,0,0,0-2.17.21,35.59,35.59,0,0,0-.38,4.67Zm-80.67-3.23c-.67,4.3-.36,4.76,3,4.63C966.48,356.21,965.94,355.33,962.52,355.61Zm57.75-1c-.7,4.54-.26,5.13,3,4.29C1023.86,354.57,1023.65,354.25,1020.27,354.65Zm-75.56,1.58-1.13.11.4,4.05,1-.1C944.89,358.94,944.8,357.59,944.71,356.23Z"/><path class="cls-3" d="M295.71,429.48a1.5,1.5,0,0,0-1.18-.25c-3.45,1.22-6.49-.88-9.75-1.17a8.48,8.48,0,0,1-4.1-1.63A14.29,14.29,0,0,0,268.6,424c-2.08.54-3.93-.26-5.76-1.13-4.3-2-8.92-2.28-13.57-2.29-.66,0-1.54.19-2-.15-2.37-2-5-1.18-7.38-.5-5.33,1.56-10.54.17-15.8,0-5.1-.14-9.92-1.82-14.92-2.54-3.68-.53-6.95-2.7-10.2-4.46-2.36-1.27-4.9-1.5-7.32-2.25-5.73-1.75-11.48-1.06-17.18.43-3.68,1-7.24,1.33-10.67-1.09-2.17-1.54-4.68-1.21-7.2-.49-5,1.44-10,2.9-15.41,2.14-3.35-.47-6.77,0-10.18.32-4.73.45-9.38-1-14.07-1.57-11.5-1.42-22.67-5-34.39-4.94a130.45,130.45,0,0,1-18.51-1.45c-.08,0-.18,0-.24,0-5.63-3.41-11.82-1.7-17.8-2-7.2-.38-14.39-1.09-21.59-1.39-5-.2-10-.18-14.85,1.31a3.81,3.81,0,0,1-3.47-.81c-1.85-1.33-3.62-3-6.14-3v-114a6.18,6.18,0,0,1,4.28,1,2.52,2.52,0,0,0,2.85.3c2-1.27,4.47-1.16,6.43-2.51.84-.57,2.23-1.6,2.85.21.5,1.44,1.54,3.2-.53,4.42-.47.27-1.28.17-1.13,1,.11.66.78.82,1.28,1.08A6.77,6.77,0,0,0,23.78,288c.44-.52.64-1,0-1.49s-.83-1-.24-1.7a1.66,1.66,0,0,1,2-.56c1.55.83,3.65.88,4.39,2.94a1.08,1.08,0,0,0,1.38.77c2.86-.87,4.7.9,6.57,2.52a3.37,3.37,0,0,0,2.42,1.07c3-.17,5.89.15,8.91-.61a6.92,6.92,0,0,1,6.78,2c2.42,2.45,5.15,5.21,9.38,3.34,1.17-.52,2.43.31,3.62.62.64.16,1.28.64,1.88.59,1.66-.14,3.1-1.61,4.59,1.19.82,1.55,1.72-1.14,2.57-2.74.34,3.31,2.25,3.8,4.6,3.64,1.89-.12,3,1.21,4.17,2.39A3.33,3.33,0,0,0,89,303.15c1,.13,1.69.53,1.83-1.2.19-2.35,2.39-3.07,3.88-1.31,1.7,2,4.48,1.71,6.22,3.52,2.5,2.59,5.09,4.47,9.25,3.09,2.57-.85,5.61.12,8.41-.58,1.17-.3,2,.36,2.72,1.29,1.62,2,3.22,2,4.77.07.63-.77,1.26-1.11,2.1-.43s1.07,1.47.13,2.3c-.41.37-1.2.58-.9,1.31a1.75,1.75,0,0,0,1.92.86c1.07-.08,2.14-.41,3.2-.42,1.87,0,3.43,0,4.94,2,1.28,1.65,4.06,1.93,6.41,2,3.79.14,7.68-.6,11.28,1.29.58.3,1.27.39,1.7,1,1.59,2.19,3.35,2.86,5.56.72.66-.64,1.44-.62,2.1.3,1.43,2,3.28,2,5.66,1.85,2.14-.11,4.62-1,6.8.75,1.43,1.15,3.37.64,5.1.48,5.31-.46,10.59-.87,15.2,2.73a4.54,4.54,0,0,0,5.52.35c4.14-2.31,7.9-.21,11.49,1.7a5.2,5.2,0,0,0,3.65.95c3.59-.62,7,.7,10.45,1.39.66.13,1.21.48,1.84,0,1.34-.93,2.28-.25,3.27.69,2.48,2.36,4.75,2.36,7.23,0,.72-.69,1.35-.36,2.06-.18,1.76.44,3.48,1.13,5.37.6a1.29,1.29,0,0,1,1.64.79,1.06,1.06,0,0,1-.74,1.56c-.71.22-1.69.45-1.11,1.45a1.65,1.65,0,0,0,2.36.75c2.52-2,5.14-1.2,7.8-.56,1.34.32,2.63,1,3.61-.88.6-1.17,2.31.41,3.17-.58,1.33-1.53,1.62-.07,2.24.65s1.64.64,2.55.73c.75.06,1.91-.43,2,.77.1.91-.95,1-1.64,1.21a5.07,5.07,0,0,0-.66.33c.27.91.93.62,1.41.45,1.25-.43,1.6.3,1.95,1.26,1.18,3.23,2.9,4.49,6.23,4.43a23.47,23.47,0,0,1,5.42.77,14,14,0,0,0,4,.21c1-.07,2.15-.32,2.39-1.45.27-1.28-.55-2.19-1.63-2.82-.47-.28-1.31-.09-1.4-.84-.1-.93.87-.82,1.37-1.17s1.2-.59,1.36-1c.94-2.62,3-2.75,5.29-2.64,2.09.1,4.38-.56,5.82,1.78.28.46.91.71,1.39,1,2.64,1.79,5.62,3.32,4.64,7.44-.18.76.5,1.55,1.08,2.17.94,1,1.83,1.35,2.33-.33a2.71,2.71,0,0,1,3.18-2.11c1.56.1,2.86-.08,3.51-2,.49-1.44,1.23-.5,1.63.32.66,1.35,1.37,1.67,2.24.17.31-.54.71-1.05,1.37-.53s.2,1-.17,1.5c-1.49,1.88-.13,2.33,1.35,2.5a26.69,26.69,0,0,0,4,0,5.94,5.94,0,0,1,3.94,1.15c2,1.44,4.27,1,6.48.41.56-.16,1.18-.35,1.17-1.09a1.42,1.42,0,0,0-1.06-1.27,5.59,5.59,0,0,1-2.58-1.9c-.58-.71-.84-1.49,0-2.2a1.51,1.51,0,0,1,2.24,0c.93.92,2,1.68,2.24,3.18.35,2,3.27,3.45,5.18,2.67a1.94,1.94,0,0,1,2.26.26c2.68,2.18,5.42,3.54,8.72,1a2.42,2.42,0,0,1,2.84.25,5.43,5.43,0,0,0,3.72,1.08c2.24.08,4.3.24,3.3-3.15a1.7,1.7,0,0,1,1.55-2.18c1.36-.1,1.58,1,1.91,2.14.48,1.6-2.08,3.6-.35,4.26,2.34.9,4.85,1.93,7.53,1.91,4.11,0,8.15.27,12.34-.28,5.35-.7,10.91.16,16.38.37,3.89.16,7.78-.5,11.67.31,1.4.29,2.16.63,2.57,2.12.59,2.18,1.28,2.24,3,.61s6.37-1.68,8.09-.14a21,21,0,0,1,1.95,1.94c1.48,1.72,2.63,2.06,3.88-.35.85-1.65,4.5-2.08,6.31-.8a5.83,5.83,0,0,0,5.69,1c4.43-1.3,8.34-.08,10.7,4.36.31.58.74,1.11,1.11,1.66.27.4.48,1,1.08.88s.76-.73.76-1.16c0-2.68,1.91-3.23,4-3.93s2.86.3,3.22,1.9c.47,2.1.26,4.73,3.77,3.18a.82.82,0,0,1,1,.58,1.37,1.37,0,0,1-.71,1.69c-1.41.88-2.92,1.6-4.31,2.51-2,1.32-2.1,2.19-.32,3.63,2.31,1.87,5.4,2,8,3.19.72.33,1.52-.53,1.71-1.18.53-1.83,1.87-3.29,2-5.3s2.38-3.08,2.24-5.31a13.21,13.21,0,0,1,.63-3.4l.58.43c.07,7.72-1.27,15.33-1.71,23-.26,4.54-1.25,9-1.11,13.58l-.21,2.95c-1.8,1.51-.86,3.32-.54,5.06a29,29,0,0,1-1.94,5.48c-2.67,2.71-6.27,3.68-9.66,5-9.84,3.75-19.43,8.09-29.12,12.19-5.08,2.16-10,4.66-15.11,6.75-1.73.71-4.13-.53-5.38,1.83-.11.2-1,.17-1.44,0-4.55-2-9.7-.12-14.27-2.29-3.61-1.71-7.58-1.53-11.47-1.58a42.81,42.81,0,0,1-7-.38c-2.56-.47-4-2.19-5.48-3.93a2.4,2.4,0,0,1-.49-1.62c.23-2.47.5-4.93.92-7.38.22-1.33,1.17-1.18,1.68-.26.77,1.37,2.12,2.66,1.35,4.52-.12.3-.39.63,0,.83a1.65,1.65,0,0,0,1,.07c.49-.08.81-.58.53-.9-1.56-1.81.7-4.71-1.83-6.24-.44-.27-.36-.91.08-1.31s1.46-.66,1.84-.21c1.42,1.71,3.53,1.22,5.26,1.88-.39-2.15-1.14-4-3.42-4.84-.69-.26-1.87-.69-1.63-1.6.29-1.14,1.52-.65,2.39-.68H389c-1.89-1.15-1.86-2.21-.63-3.6.61-.69,1.73-1.47,1.12-2.78l1-.43c-.08-.1-.16-.29-.25-.29-.51,0-.61.38-.75.75-1.87.39-3,2.29-5.15,2.31-1,0-.6,1.55-1,2.34s-.36,2.38-1.6,2.16-2.78.11-3.46-1.42c-.16-.35-.05-.9-.67-.8s-.67.7-.62,1.18a14.47,14.47,0,0,0,.49,2.69c.34,1.12.2,1.5-1,2.16-1,.56-2.46,1.82-2.44,3.45,0,2.15,1.51,1.05,2.27.69,1.22-.56,2-.26,1.65.95a7.71,7.71,0,0,0-.07,4.91c.39,1.13-.61,1.9-1.73,2.08.41,1.06,1.17.69,1.67,1-.23.14-.56.23-.62.4-1.23,3.55-4.11,3-6.84,2.78-.17,0-.34,0-.5,0-5.27-.85-9.94,1.15-14.55,3.18-2.39,1-5,1.25-7.39,2.17a2.28,2.28,0,0,1-1.68-.14c-5.06-2.76-10.6-2.77-16.13-3.43-4.87-.57-9.83-.24-14.7-1.76M390.65,411l-.25.21c.06,0,.12.09.18.1a.67.67,0,0,0,.2,0A2.88,2.88,0,0,0,390.65,411Z"/><path class="cls-3" d="M337,507.49a1.5,1.5,0,0,0,0-3,1.5,1.5,0,0,0,0,3Z"/><path class="cls-3" d="M394.93,410.13l-21.62-4.82-.39,2.95a183.8,183.8,0,0,1,32.29,5.09l.79-2.89a189.41,189.41,0,0,1-29.16-8.91l-.4,2.95,9.39-.89c1.9-.19,1.92-3.19,0-3l-9.39.89a1.5,1.5,0,0,0-.4,2.94,187,187,0,0,0,29.17,8.91c1.87.42,2.68-2.42.79-2.89a187.8,187.8,0,0,0-33.08-5.2c-1.69-.12-2.05,2.57-.4,2.94L394.13,413c1.88.42,2.68-2.47.8-2.9Z"/><path class="cls-3" d="M388.94,407.55l1.9-2.61c.82-1.12-.53-2.48-1.69-2.2a7.11,7.11,0,0,0-5,4.44A1.5,1.5,0,0,0,386,409a10.14,10.14,0,0,0,4.45-3.48c1-1.4-1.17-3-2.36-1.81q-5.14,5-10.57,9.75l2.56,1.06a5.06,5.06,0,0,0-7.82-4.19,1.52,1.52,0,0,0,.36,2.74c2.94,1,6,.14,8.8-.87,1.79-.65,1.08-3.45-.8-2.9a64.91,64.91,0,0,1-8.15,1.85l.8,2.89q5.18-1.56,10.25-3.44c1.28-.47,1.56-2.54,0-2.89-4.15-.93-8.17.34-12.06,1.76a1.55,1.55,0,0,0-1,1.85c.42,2.5,3.71,1.17,5.14.71,2.29-.73,4.54-1.55,6.77-2.44l-1.9-1.45c0,.19-.37.55-.47.73a3.16,3.16,0,0,0-.38,1.41,3.35,3.35,0,0,0,1.06,2.39c1.44,1.35,3.8,1.29,5.63,1.07.5-.06,1-.13,1.51-.24a5.43,5.43,0,0,0,1.25-.24l-.21-.26c.89-.6,1.07-.94.55-1a2.7,2.7,0,0,0-.51-.26c-.4-.25-.76-.54-1.14-.82l-5.51-4.2c-1.31-1-2.64.86-2.05,2.06a48.72,48.72,0,0,0,7.43,10.95c1.08,1.19,2.77-.1,2.51-1.46a7.76,7.76,0,0,0-3.69-5.17,1.51,1.51,0,0,0-2.2,1.69,8,8,0,0,0,2.41,3.85,1.51,1.51,0,0,0,2.51-1.46,10.33,10.33,0,0,0-1.29-3.17l-.54,2.05c-.26.2-.38-.15-.24.14.06.12.37.29.49.37a3.2,3.2,0,0,0,1.22.47,2.14,2.14,0,0,0,2.2-1l-2.35.31a3.59,3.59,0,0,1,.86,1.69l2.2-1.69c-1.71-1.18-4.36-3.68-6.58-2.25a2.56,2.56,0,0,0-1,1.34,5.19,5.19,0,0,0-.17.65c-.12.49-.32.52.48.16s.53-.3,0-.66l-1-.71-2-1.41a1.5,1.5,0,0,0-2.26,1.29,8.11,8.11,0,0,0,2.75,5.6,1.52,1.52,0,0,0,2.51-.66,8.4,8.4,0,0,0-1.08-7.33c-.79-1.13-2.89-.85-2.8.75a28.48,28.48,0,0,0,1.66,8.17,1.5,1.5,0,0,0,2.94-.4,14.83,14.83,0,0,0-.82-6.86c-.54-1.49-3.05-1.41-2.94.4a50.34,50.34,0,0,0,1.88,11l.69-1.7c.59.09.73,0,.43-.16l-.21-.22c-.2-.23-.37-.49-.56-.72a8.19,8.19,0,0,0-1.48-1.4,5.42,5.42,0,0,0-3.77-1.06,1.52,1.52,0,0,0-.75,2.8l1.9,1.38.76-2.79a3.59,3.59,0,0,1-1.69-.13,3,3,0,0,1-.67-.33c-.29-.19-.47-.68-.29-.1v.8c-.23.37-.18.36.15,0l.6-.57,1-1,2.24-2.13a1.52,1.52,0,0,0,0-2.12,3.79,3.79,0,0,0-4.49-.45,1.51,1.51,0,0,0,.76,2.79,3.41,3.41,0,0,0,3.47-3.21,1.49,1.49,0,0,0-1.5-1.5,7.63,7.63,0,0,0-5.33,3.11l2.79.76a2.47,2.47,0,0,0-3.12-2.31c-1.77.41-2.22,2.25-2.34,3.83a1.52,1.52,0,0,0,2.56,1.06,10.91,10.91,0,0,0,3.13-5.67,1.51,1.51,0,0,0-2.51-1.46,13.14,13.14,0,0,0-4.28,6.25c-.45,1.38,1.11,2.15,2.21,1.69l2.1-.89,1.05-.44c.21-.1.42-.18.63-.26-.34-.19-.41-.19-.21,0s.6.67.8.9l.83.93,1.79,2,1.82-2.35a13.48,13.48,0,0,1-3.87-3l-1.06,2.56a52.13,52.13,0,0,1,6.12.17c1.67.14,2.08-2.69.4-2.95a18.17,18.17,0,0,0-4.48-.18c-1.91.18-1.93,3.18,0,3a15.1,15.1,0,0,1,3.68.07l.4-2.94a52.13,52.13,0,0,0-6.12-.17,1.52,1.52,0,0,0-1.06,2.56,16,16,0,0,0,4.48,3.43,1.51,1.51,0,0,0,1.81-2.36l-2.34-2.64c-.67-.76-1.35-1.77-2.39-2a4.34,4.34,0,0,0-2.75.63l-3.15,1.33,2.21,1.69a10.36,10.36,0,0,1,3.5-4.92l-2.5-1.46a8.09,8.09,0,0,1-2.36,4.35l2.56,1.06a7.72,7.72,0,0,0,.15-.88c.07-.13,0-.14-.12,0-.32.06-.51-.15-.57-.6a1.52,1.52,0,0,0,2.8.76,4.2,4.2,0,0,1,2.74-1.63l-1.5-1.5c0,.2-.34.21-.47.21l.75,2.8a.71.71,0,0,1,.85,0V416l-3,2.85c-.83.79-2.12,1.67-1.82,3,.48,2.12,3.7,3,5.54,2.76a1.52,1.52,0,0,0,.76-2.8l-1.91-1.38-.76,2.79c3.16-.38,3.77,4.63,7.11,3.15a1.5,1.5,0,0,0,.68-1.69,46.65,46.65,0,0,1-1.77-10.22l-2.95.4a12.75,12.75,0,0,1,.71,6.06l2.95-.4a25.84,25.84,0,0,1-1.55-7.37l-2.79.76a5.54,5.54,0,0,1,.77,5l2.51-.67a5.1,5.1,0,0,1-1.87-3.48l-2.26,1.3c1.49,1.06,4.89,4.51,6.49,1.86a3,3,0,0,0,.4-1.14c.07-.57-.06-.08-.12-.16.11.14-.27-.12.26.18,1.11.64,2.15,1.41,3.21,2.14s2.48-.51,2.2-1.7a6.63,6.63,0,0,0-1.63-3,1.52,1.52,0,0,0-2.36.3c1-.15,1.19-.34.69-.56l-.4-.31a3.2,3.2,0,0,0-.84-.44,2.17,2.17,0,0,0-2,.24,1.53,1.53,0,0,0-.53,2.05,8,8,0,0,1,1,2.46l2.5-1.46a5.22,5.22,0,0,1-1.64-2.53l-2.2,1.7a4.84,4.84,0,0,1,2.31,3.37l2.5-1.46a45.75,45.75,0,0,1-7-10.34l-2.05,2.05c2.11,1.61,4.18,3.34,6.37,4.84a4,4,0,0,0,3.2.78,2.15,2.15,0,0,0,1.44-2.69c-.74-2.84-3.85-1.61-5.82-1.42-.85.09-2.47.32-3.19-.3-.27-.23,0-.28.24-.7a3.09,3.09,0,0,0,.49-1.64,1.51,1.51,0,0,0-1.89-1.45q-2.42,1-4.88,1.82c-.75.26-1.52.51-2.28.75l-1.15.35-.76.23a1,1,0,0,1,.84.68l-1.05,1.85c3.31-1.21,6.9-2.56,10.46-1.77v-2.89q-5.07,1.88-10.25,3.44a1.5,1.5,0,0,0,.8,2.89,65.28,65.28,0,0,0,8.15-1.84l-.8-2.9c-2.31.84-4.77,1.74-7.2.88l.36,2.74a2,2,0,0,1,3.3,1.6,1.52,1.52,0,0,0,2.56,1.06q5.42-4.74,10.57-9.75L387.87,404a6.45,6.45,0,0,1-2.66,2.1l1.85,1.84a4,4,0,0,1,2.89-2.34l-1.7-2.2-1.9,2.61c-1.14,1.56,1.46,3,2.59,1.51Z"/><path class="cls-1" d="M1089.23,215.87a1.5,1.5,0,0,0,0-3,1.5,1.5,0,0,0,0,3Z"/><path class="cls-1" d="M1104.54,213.14c-4.72,2.89-10.39-.37-15.49-.48A23.11,23.11,0,0,0,1077,216c-1.83,1.06-1.77,3.22-.61,4.71,1.59,2,3.8,2.5,6.27,2.4,4.63-.19,8.83-.8,13.5,0,3.73.61,5.42-4.86,1.6-5.79a20.08,20.08,0,0,0-11.16.33c-2.65.83-3,5.15,0,5.78a19.86,19.86,0,0,0,20.71-8.08c1.36-1.87-.47-4.55-2.59-4.51-7,.12-14,1.34-21,2.16-3.78.45-3.83,6.45,0,6,7-.82,14-2,21-2.16l-2.59-4.52a13.59,13.59,0,0,1-13.93,5.33v5.78a13.76,13.76,0,0,1,8-.32l1.6-5.79a49.78,49.78,0,0,0-8.26-.78c-1.89,0-7.54,1.65-8.86,0l-.61,4.71c5.52-3.19,10.19-2.38,16.09-1.28,4.07.75,7.87.63,11.48-1.58,3.29-2,.28-7.2-3-5.18Z"/><path class="cls-1" d="M1014,230.88c2.9,1,6.18,2.79,9.31,2.33,2.95-.44,5.84-2.22,8.27-3.86,3.17-2.14.35-7.15-3-5.19-2.19,1.28-4.69,2.51-7.3,2.24-2-.21-3.61-1.42-5.64-1.58-3.85-.31-3.83,5.7,0,6,1.1.09,2.32,1,3.45,1.28a13.83,13.83,0,0,0,4.06.25,20.62,20.62,0,0,0,8.46-3l-3-5.19c-1.72,1.17-4.33,3.19-6.51,3.15-1.91,0-4.63-1.58-6.44-2.22-3.66-1.27-5.23,4.52-1.6,5.79Z"/><path class="cls-1" d="M603.88,216.21c-7.69-2.27-15.72-3.13-23.65-4.07-3.4-.4-4,5.07-.8,5.9,4.64,1.19,18.73,7.44,20.24-1.17S588,210.4,583.5,210.73l.8,5.89c3.25-.74,10.16-1.44,8.05-6.59a4.41,4.41,0,0,0-3.65-2.74c-3.39-.42-6.21,1.87-9.89,1.19l-.8,5.89c4.57.08,8-1.76,12.33-2.65,3.23-.66,2.44-4.78,0-5.78-1.39-.58-10.84-1-10.41,1.73l-1.38,3.39c.42-.28,5.53.61,6.32.58a40.09,40.09,0,0,0,7.39-1c3.08-.69,2.61-4.88,0-5.79-3-1-6.08-.62-9.13-1.17-2.56-.47-4.51-1-7,0-2.1.8-3.33,4.34-.72,5.48,6.09,2.66,13,1.32,19.1-.58,3.68-1.14,2.11-6.93-1.59-5.79-4.23,1.31-10.17,3.07-14.48,1.19l-.71,5.49c2.32-.89,4.39.3,6.67.58s4.17-.15,6.27.59v-5.79a31.25,31.25,0,0,1-10.38.61c-1.76-.19-3.2-.6-4.76.45a3.14,3.14,0,0,0-1.37,3.39c1.11,7.1,11.15,1,14.6,2.45v-5.78c-3.8.77-6.69,2.5-10.74,2.43-3.3-.06-4.19,5.27-.8,5.89a19.9,19.9,0,0,0,5.76.4,22.66,22.66,0,0,0,2.44-.43c1.89,0,2.27-1,1.16-2.78l2.1-2.09a40.65,40.65,0,0,1-6,1.47c-3.25.74-2.61,6.14.8,5.9,1.69-.13,3.39-.24,5.09-.31,1.06,0,4.18.63,3.36-1.36-.45-1.07-9.51-2.44-10.93-2.81l-.79,5.89c7.41.88,14.87,1.73,22.06,3.86,3.71,1.09,5.29-4.7,1.59-5.79Z"/><path class="cls-1" d="M590.27,208.29a5.42,5.42,0,0,0,4.29,4.89c1.36.33,2.63-.07,4,.11s2.34.89,3.73.56c2.62-.63,4.32-4,2.17-6.2-1-1-2.64-1.19-3.92-1.35a15.19,15.19,0,0,0-2.13-.1l-.82,0c-.82,0-.62.5.61,1.61l-.77,1.32.24-.26H593.4a9.24,9.24,0,0,0,8.53,2.46c3.79-.74,2.19-6.53-1.59-5.79a2.94,2.94,0,0,1-2.7-.91,3,3,0,0,0-4.24,0,4.38,4.38,0,0,0,.78,6.67c2.2,1.44,4.93.54,7.33,1.34l-2.09-2.1.09.39.3-2.31,0,.06,1.32-.78c.36-.1-1.29-.52-1.14-.49a10.05,10.05,0,0,0-2.05-.14,7.25,7.25,0,0,0-1.91.08l0,0c-.41-.18-.29.13.33.94a3.1,3.1,0,0,0-3-3c-1.46,0-3.2,1.39-3,3Z"/><path class="cls-1" d="M599,216.72a10.65,10.65,0,0,0,13,1.45,3,3,0,0,0-2.31-5.48c-.63.13-3,.92-3.37.76a7.55,7.55,0,0,1-.24-1.58l-5.89.8c2,7.49,11,8.54,15.5,2.73,1.35-1.74-.46-4.73-2.59-4.51a9.39,9.39,0,0,0-3.77,1.1c-3.41,1.82-.38,7,3,5.18l.75-.28-2.59-4.52c-1.49,1.94-4,.67-4.53-1.3-.86-3.2-6.08-2.64-5.9.8.13,2.42.61,5,2.72,6.5,2.48,1.77,5.76.68,8.48.1L609,213a4.58,4.58,0,0,1-5.74-.51c-2.79-2.67-7,1.56-4.24,4.24Z"/><path class="cls-1" d="M437.73,231.54a33.13,33.13,0,0,0,20.15,2.58c4.46-.8,8.35-1.48,12.91-1,4.15.48,8.29,1.19,12.43,1.79,3.77.54,5.41-5.24,1.59-5.79-6.69-1-13.88-2.79-20.67-2.2-8.5.73-15.07,3.18-23.38-.59-3.49-1.59-6.55,3.58-3,5.18Z"/><path class="cls-1" d="M477.44,228.07a68.53,68.53,0,0,0-13.19-2.94c-1.55-.23-3.54-1.25-5.14-.84-1.25.32-1.92,1.42-2.89,2.13-2,1.43-5.07,2.08-4.52,5.23s6.12,4.13,8.61,5.12c3.58,1.42,5.14-4.38,1.59-5.79a35,35,0,0,1-5.74-2.32l1.48,2.59c-.07,3.1,3.5-1.3,3.78-1.48l-2.31.3c5.54,1.58,11.24,1.82,16.74,3.78,3.64,1.3,5.21-4.49,1.59-5.78Z"/><path class="cls-1" d="M310.3,223.4c-3.32,3.45-6-3.47-8.94-4.74-3.77-1.63-7.69-.31-10.94,1.84s-.2,7.31,3,5.18c1.32-.87,3.22-2.16,4.91-1.72s2.09,2,3,3.17a8,8,0,0,0,3.71,2.76,8.78,8.78,0,0,0,9.47-2.25c2.67-2.78-1.56-7-4.24-4.24Z"/><path class="cls-1" d="M303.94,228.26a7.41,7.41,0,0,0-3.27-11.19,7.84,7.84,0,0,0-6.42.46c-1.9.94-4.5,4.23-6.77,3.68l.72,5.49a21.87,21.87,0,0,1,10.07-4c3.81-.52,2.19-6.3-1.59-5.78a25.62,25.62,0,0,0-11.51,4.59c-2,1.42-2,4.83.72,5.49a9.11,9.11,0,0,0,7.68-1.73c1.06-.74,2.09-1.91,3.31-2.37,1.87-.71,3.09.58,1.88,2.33-2.2,3.18,3,6.19,5.18,3Z"/><path class="cls-1" d="M186.05,212.07c-2.88-1.44-2.05-7.2-5.1-9.35a6.14,6.14,0,0,0-7.4,0c-5.7,4.48.45,10.13,5.23,11.29,2.08.51,3.55-.95,3.8-2.89l1-8.29-3,3c-1.45.06-1.23-2.9-1.51.17a7.14,7.14,0,0,0,.28,2.21,10.13,10.13,0,0,0,2.86,5c2.83,2.69,6.61,3.18,10.26,2.19,3.3-.9,2.56-5.8-.8-5.89a4.47,4.47,0,0,1-4.66-3.13l-5.49,2.32a16.35,16.35,0,0,0,4.66,5c1.37.91,6.39,2.19,6.83,3.75l.78-2.92c.5-.46-4.94-1.5-5.4-1.65-3.75-1.22-4.33-3.46-5.35-6.95-.84-2.88-2.28-4.3-5.28-4.6L179.3,207l1.21-.32-.8-5.89c-7.09,1.68-12.47,4.63-20.09,3.62-3.81-.51-3.78,5.49,0,6a31.66,31.66,0,0,0,11.15-.38c3.64-.8,6.92-2.6,10.54-3.45,3.24-.77,2.61-6.12-.8-5.9a9.48,9.48,0,0,0-4.23,1.14c-2.94,1.44-1.16,5.33,1.51,5.59-.78-.65-.91-.4-.39.74l.38,1.65a22,22,0,0,0,1.42,3.93,8,8,0,0,0,4.7,4.39,47,47,0,0,0,9.78,2c1.89.18,2.92.06,4.38-1.27a3,3,0,0,0,.77-2.92c-1.63-5.63-9.15-5.54-12.1-10.21-1.72-2.74-6.77-1-5.48,2.31,1.83,4.68,5.35,7.38,10.45,7.53l-.8-5.9c-8.68,2.37-2.72-10.1-10.29-9.77a3.11,3.11,0,0,0-3,3l-1,8.29,3.79-2.89c-3.07-.75-1.73,3.68-.91,5.39a7.5,7.5,0,0,0,3.56,3.62c3.45,1.72,6.49-3.45,3-5.19Z"/><path class="cls-4" d="M339.19,506.84a1.5,1.5,0,0,0,0-3,1.5,1.5,0,0,0,0,3Z"/><circle class="cls-5" cx="339.5" cy="502.5" r="7"/></svg>