<svg id="Layer_1" data-name="Layer 1" xmlns="http://www.w3.org/2000/svg" width="1341" height="756" viewBox="0 0 1341 756"><defs><style>.cls-1{fill:#cda9a5;}.cls-2{fill:#cabac4;}.cls-3{fill:#a68587;}.cls-4{fill:#fff;}.cls-5{stroke:#000;stroke-miterlimit:10;}</style></defs><rect class="cls-1" x="-9.02" y="83.43" width="1352.17" height="408.88"/><path class="cls-2" d="M804.64,83.27,732,261.22a3,3,0,0,0,.22,2.42l-.46.51a6.64,6.64,0,0,1-5-1.71c-1.29-1.13-2.07-2.56.55-3.09,1.52-.3,1.86-1.24,1.89-2.57,0-2.34-2-4.95-4.14-5.13s-5.21,2.73-5.4,5c-.1,1.25.26,2.75-1.47,3.19-1.2.3-2.7.36-3.32-.7-1.22-2.09-2.82-4.41-1.16-6.91,1.54-2.32.48-4.62.42-6.93a1.74,1.74,0,0,0-1.45-1.7c-1.05-.17-1.26.76-1.5,1.51a15.17,15.17,0,0,0-.45,1.73c-1.27,6.42-1.26,6.42-7.26,4.63-2.5-.75-3.09-2.52-1-4s3.28-2.84,3.37-5.47c0-1.11.88-2.18-.13-3.25a1.91,1.91,0,0,0-2.42-.58c-1.27.75-2.77,1.6-2.59,3.33.31,3-1.28,3.15-3.48,2.6s-3.44.34-3.29,2.73a11.85,11.85,0,0,1-.84,4.67c-.58,1.71.23,2.41,1.87,2.5a7.45,7.45,0,0,0,3.14-.83A2.79,2.79,0,0,1,702,254.5c2.21,4,1.74,5.08-2.71,6.11a4.09,4.09,0,0,0-2,1.2c-1.52,1.52-2.23.67-2.56-.94a16.32,16.32,0,0,0-.63-3.2c-.94-2.24-1.9-4.07-5-3.16a5.92,5.92,0,0,1-4.38-.43c-1.26-.68-1.78-1.37-.53-2.74,2.23-2.43,1.83-5.15-.9-7a5.06,5.06,0,0,1-1.87-1.86c-1.16-2.25-2.53-1.89-4.34-.63-2.15,1.5-4.31,3.09-7,3.69-2-8-2.69-16.2-3.31-24.44a134,134,0,0,1-2.68,19.75c-1.65,7.2-1.67,14.88-6,21.31-.47.68-.52,1.34.6,1.43a.94.94,0,0,0,.45.21c.84,8.13.14,16.26,0,24.38,0,.91-.62,0-.94-.18-.26-9.41-2.08-18.66-2.72-28l0-1.29c.24-2.4-.51-4.7-.69-7.06a2,2,0,0,0-.13-1.88l0-1.17a1.4,1.4,0,0,0-.1-1.77l-.45-3.54a1,1,0,0,0-.14-1.24,79.16,79.16,0,0,0-1-11.91,3.85,3.85,0,0,0-.24-3,8,8,0,0,0-.43-3.54,1.71,1.71,0,0,0,0-1.88,28.05,28.05,0,0,1-.62-7.75.76.76,0,0,0-.06-1.18,24.57,24.57,0,0,0-.53-6,.8.8,0,0,0-.1-1.18c-.33-3.57-.67-7.14-1-10.71a1.89,1.89,0,0,0-.17-1.85c0-.6,0-1.2,0-1.81.48-.41.49-.8,0-1.18-.09-.78-.17-1.55-.26-2.33.24-5.14.24-10.28-.06-16.23-1.16,5.9-.68,11.11-1.12,16.25a20.64,20.64,0,0,0-.87,5.89,2.14,2.14,0,0,0-.15,2.41l-.42,3.58a2.5,2.5,0,0,0-.26,2.45l-.33,2.33a1.79,1.79,0,0,0-.25,1.86,5.43,5.43,0,0,0-.34,2.93,2.52,2.52,0,0,0-.33,2.44l-.28,1.74a1.68,1.68,0,0,0-.26,1.85c-.09,1-.19,1.91-.28,2.86l-.23,1.2-.18,1.76a19.27,19.27,0,0,0-.59,2.29q-2.85,21.72-5.66,43.44c-.84,6.53-3.09,12.86-2.86,19.54-.47,1.51.19,3.22-1.26,4.71q-.87-6.51-1.75-13c1.06-.64.73-1-.23-1.34l-.23-1.19a2.34,2.34,0,0,0,2.77-2,24.69,24.69,0,0,0,.42-7.66,2.26,2.26,0,0,0-2.24-2.31c-1.28-.14-2.59-.67-3.6.52s.47,1.91.71,2.87c.15.57.36,1.13.54,1.69v1.53c-2.62-.58-4.88-1.41-3.83-4.9a1.66,1.66,0,0,0-1.18-2.12,7.07,7.07,0,0,0-7.2,1.94,5.24,5.24,0,0,1-4.68,2.11c-2.22-.08-3.72.69-4.5,3-.83,2.53-2.66,3-4.87,1.52a10.09,10.09,0,0,0-5.32-1.59c-3.71-.28-7.35,1-11,.54a17.45,17.45,0,0,0-8.13,1.24c-2.71,1-5.28,1.86-7.81-.4a2.37,2.37,0,0,0-1.67-.44c-3.62.39-7.37.08-10.68,2.07-1.41.86-2.34,1.16-3.37-.87-1.26-2.47-5.84-2.66-7.59-.7-1.47,1.66-3.27,1.18-4.27-1.18-.3-.71-.26-1.75-1.35-1.64s-1.07,1.07-1.08,1.86c0,2.39-1.6,3.1-3.55,3.74-3.71,1.19-7.5-.46-11.2.53-.57.15-1.47-.15-1.53-.68-.22-2.31-2.36-3.7-2.76-5.78-.57-2.91-2.51-3.05-4.66-2.76-1.56.21-3,.95-4.6,1.26-3.88.77-7.81,2.57-11.55-.63a3.39,3.39,0,0,0-2.82-.68c-3.53,1.34-7.08.32-10.61.41-.66,0-1.31.45-2,.51-4.08.4-7.8,2.67-12.14,1.94-2.51-.42-5.11-1.17-7.69-.66-4,.79-7.87,0-11.74-1-2.09-.5-4.08-.56-5.87,1.09a3.13,3.13,0,0,1-4.35.13,7.51,7.51,0,0,0-4.14-1.51c-5.9-.28-11.76.1-17.71-.34-13.57-1-27.22.8-40.86.37a4.53,4.53,0,0,0-2.05.29,6.44,6.44,0,0,1-6.28-.44c-3.92-2.31-7.6-1.63-11.36.19-4.12,2-5.73,1.32-7-3.11-.34-1.18-.65-1.86-2-1.33-3.63,1.46-7.22,1-10.75-.36-1.69-.66-3.08-.68-4,1.13a1.46,1.46,0,0,1-2.24.68c-1.42-.84-2.55-.18-3.9.36-4,1.59-8.06,2.81-12.17,0-2.5-1.69-5.42-1.74-8.35-1.67-1.83,0-2.93.9-3.08,2.57-.24,2.69-1.54,3.14-3.84,2.38-.73-.24-1.61,0-2.37-.18-3.25-.77-6.76,0-9.82-2-3.55-2.27-7.45-3.94-11.72-3.31a13.05,13.05,0,0,1-8.54-1.37c-1.41-.76-2.85-1-3.48,1.19-.4,1.36-1.57,1-2.71,1.07-5,.18-9.44-2.05-14.16-3.06-2.46-.52-5.22.57-7.31-.81-1.94-1.29-3.5-.83-5.28-.22a13,13,0,0,1-2,.64c-.67.13-1.51.27-2-.36s.1-1.31.48-1.88,1.6-.94,1-1.9-1.59-.38-2.46-.32c-3.18.21-6.35.41-8.81-2.27a1.85,1.85,0,0,0-2.9-.07c-2.5,2.49-5.35,1.94-7.93.54a10.58,10.58,0,0,0-5.65-1.45,18.72,18.72,0,0,1-4.17-.09,3.77,3.77,0,0,1-3.1-3.52c0-1.83,1.8.24,2.17-.22,1.59-1.94,3-4,5.37-5.18.23-.12.78-2.48-1.07-2.8-1.48-.26-3-.45-3.75,1.45-.41,1.11-.82,3.1-1.78,2.82-2.39-.69-5,.66-7-.48-4.41-2.49-9.34-1.52-13.94-2.29-2.82-.47-5.84-1.12-7.87-2.35-4.66-2.82-9.3-1.83-13.8-1.11a10.25,10.25,0,0,1-6.8-.88c-1.61-.85-2.85-2.44-4.18-3.78s-2.6-1.63-4.14-.27c-1.71,1.51-4.11,1.37-6,2.16-3.65,1.54-6.73,1.89-9.91-.69-.31-.25-1-.12-1.46-.08-1.77.15-2.89-.34-2.88-2.39,0-1.2-.87-1.71-2-1.78-.8-.05-1.79.06-2.21-.67-1.89-3.26-4-2.35-6.43-.63-1,.71-2.19,1.11-3.13-.27-1-1.55-.62-6.26.9-7.21,2.69-1.67,5.43-3.1,8.91-2.47,4,.71,7.82,0,10.9-2.92,1.1-1,2.17-.58,3.33-.32,1,.23,1.48.55,1.38,1.79-.17,2.17,1.56,2,2.91,1.83s3-.66,2.59-2.84-1.45-3.93-3.92-4.19a2.87,2.87,0,0,1-2.3-1.61,8.28,8.28,0,0,0-11.72-2.44c-4,2.5-6.59,2.33-10-.7a2.12,2.12,0,0,0-1.6-.65c-2.49.22-3.89-1.06-4.75-3.24a2,2,0,0,0-2.62-1.4,19.2,19.2,0,0,1-5.34.43c-1.94.06-3.3.88-3.5,2.92a2.76,2.76,0,0,1-1.74,2.57c-3.31,1-5.92,3.45-9.23,4.41-1.33.38-2.66.44-3.49-.86s.55-1.92,1.2-2.69c1.67-2,1.52-2.77-.92-3.56a16.7,16.7,0,0,0-6.15-1c-1,.06-2,0-2.59-1-1.81-3.47-1.31-7.26-1.42-10.94a2.42,2.42,0,0,1,2.46-2.23c1.69-.14,2.07-1,2.13-2.58.2-5.23.25-5.23-5-5.31-.4,0-.8,0-1.19,0-4.67-.44-7.48-3.34-7.6-7.77-.05-1.56-.39-3-2.2-3.47-1.5-.4-3.57.7-4.48-.74s1.1-2.68,1.52-4.21c.91-3.37-.81-6.67.43-10s1.76-4,5.3-3.37c1.66.29,3.34.48,5,.62,1,.08,1.88-.52.92-1.34-1.77-1.49-3.29-4-6.36-2.35-1.43.77-2.84.44-3.41-1.22-1.55-4.52-2-4.9-6.56-4.94-3.83,0-4.7-.87-5.07-5-.34-3.73.91-5.6,4.15-6.26s3.94-1.61,3.3-4.82c-.41-2-.51-3.68,1.31-5.37,2.09-1.93.74-7.85-2.14-9.4,3.22-.1,3.81-2.26,4-4.47.29-2.84,1.92-3.63,4.48-3.61,1.29,0,2.67,1,3.78.29,2.29-1.52,4.57-1.46,7.11-1a3.39,3.39,0,0,0,3.48-1.9,2.33,2.33,0,0,0-.35-3c-1.73-1.48-3.57-2.85-5.44-4.16a1.78,1.78,0,0,0-2.46.3c-2.64,3.45-6.73,3.63-10.39,4.59-2.44.63-3,1.67-2,3.75.46,1,.82,1.83.1,2.77s-2,.86-3,.62a7,7,0,0,1-3.19-1.53c-1.65-1.43-3.46-2.67-5.12-4.08-4.23-3.61-8.9-2.86-13.45-1.12-2.6,1-4.73,1.25-7.28-.2a21.51,21.51,0,0,0-13.18-3c-3,.33-6,1.43-7.68,3.9-.86,1.24-1.27,2.75-2.7,3.65-1.15.72-1.16,2-1.17,3.2a8.66,8.66,0,0,1-.35,3.54c-.57,1.33-1.44,2.09-2.72,1-1.92-1.71-4.18-1.63-6.48-1.59Q-9.53,55.25-9.59,0c0-2,.4-2.44,2.45-2.44q673.64.09,1347.26,0c2,0,2.44.4,2.44,2.44q-.09,123.72,0,247.45a67.24,67.24,0,0,0-20,1.08c-2.72.56-5.46,1.88-8.43.77a1.38,1.38,0,0,0-2,1.27c0,2.74-1.72,2.88-3.81,2.88-4.92,0-9.62,4.41-10,9.44-.11,1.48-.36,2.42-2.14,2.5-5.29.24-10.5,0-15.48-2-1.2-.49-2.12-1.21-1.77-2.69.31-1.27,5.51-3.81,6.43-3,1.43,1.3,3.19,1,4.77,1.45s2.61,0,2.73-1.71c.11-1.5.27-3.18-1.91-3.35-3.37-.27-6.73-.56-10.1-.62a4.6,4.6,0,0,0-4.92,5.07c.24,2.32-.69,3.3-2.64,3.94a6.72,6.72,0,0,0-3.35,1.87,4.06,4.06,0,0,1-4,1.6c-2.63-.39-4.1,1.36-5.44,3-2.35,2.89-4.45,2.82-5.69-.75-.71-2-2-1.93-3.57-2.29-6.09-1.36-11.11,2.27-16.58,3.53-5.28,1.22-5.12,1.93-8.56-2.28-1.89-2.33-3.87-2.47-6.08-.34-1.28,1.24-2.43,2.62-3.67,3.92a5.69,5.69,0,0,1-5.72,1.53c-2.19-.5-2.09-2.34-2.05-4.08,0-.49,0-1,0-1.49a1.9,1.9,0,0,0-2.22-1.88c-1.21,0-2.75-.51-3.08,1.42-.47,2.75-2.32,3.34-4.8,3.36-4,0-8.08-.29-12.12,1-5.62,1.74-10.47-.47-14.74-4.08-3.1-2.64-7-2-9.49,1.24-1.37,1.81-2.65,4.42-5.49,4-4.07-.6-8.08.55-12.07.13s-8.25-.29-11.88-3a5.88,5.88,0,0,0-6.62-.36c-1.87,1.35-3.17,1.51-5,.43a7.47,7.47,0,0,0-2.6-.51c-3-.47-5.21,1.68-7.75,2.69a3.41,3.41,0,0,1-4.11-.6c-2.26-1.75-4.8-4.27-8.26-2.79-6.36,2.72-9.07,3.26-15.45-3.07a2.21,2.21,0,0,0-3-.32c-2.3-.55-3.1-2-3-4.32.13-3.15,0-6.32-.08-9.48.92-.47.84-.91-.06-1.31l-.69-24.62c3.29.76,3.24.76,3.06-2.61a19.87,19.87,0,0,1,.37-3.22v0c1,0,1.73-.2,1.75-1.38.26-1.28.85-2.52.32-3.86.69-4.16.51-4.72-3.22-6a3.21,3.21,0,0,1-2.54-3.67c.19-6.65-.84-13.29-.42-20,0-.64.22-1.43-.71-1.8-1.28,1.1-.6,2.56-.68,3.87-.07,1.06-.43,1.25-1.22.52-1-1.56-.76-3.34-1-5q-3.63-22.69-7.26-45.41-3.43-21.64-6.83-43.31c-1.83-11.77-4-23.48-5.06-35.36a73.82,73.82,0,0,0-.64-16.67c-.55,5.56-1.53,11.09-.57,16.68-.2,1.19-.4,2.39-.59,3.58-.41.38-.49.77,0,1.17l-.45,7.3a2.19,2.19,0,0,0-.21,2.85l-.36,3.59c-.5.34-.67.73-.17,1.22-.14,1.18-.27,2.37-.41,3.56a1.13,1.13,0,0,0-.19,1.82l-.36,2.94a2.35,2.35,0,0,0-.29,3l-.28,2.32a1.65,1.65,0,0,0-.32,2.45l-.39,2.45c-.5.33-.57.7-.14,1.14-.1.79-.19,1.57-.28,2.36-1,.68-.91,1.51-.35,2.41l-.27,2.37a2.26,2.26,0,0,0-.39,3l-.27,2.36a2.33,2.33,0,0,0-.31,3c0,.39-.11.79-.16,1.18-1.36,1.55-.76,3.34-.62,5.07-.06.53-.13,1.06-.19,1.59a1.7,1.7,0,0,0-.22,2.33c-.08.58-.16,1.16-.25,1.73-1,1-.85,2.15-.51,3.34l-.25,2.75c-.5.32-.63.69-.19,1.16l-.36,3a1.06,1.06,0,0,0-.22,1.76l-.3,2.34c-1,1-.78,2.13-.47,3.3l-.18,1.56a1.1,1.1,0,0,0-.18,1.77l-.39,2.91c-.69.53-.9,1.13-.29,1.86l-.28,2.32a1.65,1.65,0,0,0-.28,2.47c-.11.77-.23,1.54-.34,2.31a1.68,1.68,0,0,0-.25,2.47l-.3,2.31a2.22,2.22,0,0,0-.36,3.06l-.27,1.12a4,4,0,0,0-.31,4.25c.11,2.49-.93,3.61-3.54,3.3a24.1,24.1,0,0,0-4.14.25c-.42-.46-.78-.37-1.13.09-2.49.57-3.73-.23-3.33-3a27.88,27.88,0,0,0,.15-2.9,5.26,5.26,0,0,0-.09-5.61c-.41-1.59-1.78-2.88-1.51-4.69a1.14,1.14,0,0,0-.22-1.88c-.21-1.1-.41-2.19-.62-3.28.13-2,.75-4-1.07-6.34a28.51,28.51,0,0,0-.55,7.9l-.49,3c-.49.33-.59.71-.14,1.15-.77,3.37-1.93,6.69-1.21,10.23-.92,1.95-.21,4-.4,6l-6.12.48a.68.68,0,0,0-1.14.09c-1.58,0-3.16.58-4.72-.11.31-2.16-.1-4.33.33-6.51.28-1.41-.79-2.65-1.76-3.6s-2.08-.26-3.13-.09a.82.82,0,0,0-.62,1.14c1,3.58.07,7.32.87,10.91,0,.39,0,.79.05,1.18,0,3.17.07,6.35-.14,9.5-1.41,20.94-1.19,42-3.17,62.87l.34,1.14c0,3.06,0,6.12.14,9.17.19,3.71-.53,7.48.59,11.15.16,1,.33,2,.49,3l.15.66.17,2.18c-.12,1.45-.25,2.89-.37,4.33-5.32-1.35-6.81-3.46-6-8.81.41-2.89-.29-5.06-3.19-6.24a14,14,0,0,1-4.42-3c-1.46-1.42-5.63-1.69-6.95-.37-4.51,4.55-9.27,7.41-16.13,5-1.52-.54-2.71-.67-3.38-2.17-.08-6.37.25-12.77-1.57-19l-.7,19.15c1.11,2.22-.79,4.28-.36,6.47-.67.1-2.1,2.27-1.66-.66a26.26,26.26,0,0,0,.12-4.16c0-.8,0-1.76-1-1.94a1.58,1.58,0,0,0-1.82,1.56c-.31,2.52-2,3.1-4.13,3.47-6.35,1.11-12.72.9-19.1.51-2.24-.13-3.56-1.46-4.31-3.54-.88-2.42-2.45-3.08-4.51-1.72-1.37.91-2.11,1.21-2.9-.58-.69-1.56-1.68-1.64-2.4.11-.47,1.13-1,2.24-2.49,2.13-.33-1.37-.66-2.73-1-4.1,1.1-1.55.51-2.7-.86-3.66a15.23,15.23,0,0,1-.94-4.71c.55-.1,1.42.06,1.42-.7,0-1.21-1-1.54-2-1.71-.74-2.57-1.49-5.13-2.23-7.7a1,1,0,0,0-.24-1.23c-.67-2.19-.92-4.51-2.09-6.54-1.61-8.45-3.36-16.87-4.16-25.46-1.74,4-1,8.35-2.11,12.41-1.29,4.54-1.08,9.42-3.25,13.81-.53,1.09-1.19,2.55-.59,4v1.18a1,1,0,0,0-.25,1.24,141.33,141.33,0,0,0-4.18,17.23c-1.75,4.47-2.17,9.24-3.15,13.88-1.83,8.66-3.46,17.36-5.38,26-2,9.1-3,18.46-6.92,27.08a1.64,1.64,0,0,0-.94,2.21l-.26,1.37c-2.08-.67-2.43-1.88-1-3.49.41-.46,1-.88.59-1.47-1.59-2.17-.51-4.18.3-6.17a3.79,3.79,0,0,0,0-2.83c-1.23-3.86-5.15-4.58-7.8-6.75-.9-.74-1.9.31-2.4,1.48a6.57,6.57,0,0,1-8,3.54c-.77-.26-1.58-.66-2.29-.2-2.81,1.82-3.66,0-4.36-2.23-1-3.23-5.09-3.34-6.44-6.25-.07-.15-.57-.17-.85-.11a3,3,0,0,1-3.42-1.88q0-16.38,0-32.74c.91-.37,1-1.14.92-2M788.55,29.37"/><path d="M431.5,495.77m23.72,15.68c5.57,1.32,11.26,2.12,16.89,3.23a14.28,14.28,0,0,1,4.24,1.34c4.18,2.36,8.63,2,12.94,1.08,1.61-.32,2.87-2.32,4.68-3.9L489.78,511c1,0,1.75,0,2.52,0,1.59,0,2.12-.6,1.77-2.22a33,33,0,0,1-.32-4.48l-1.43-1.07,4.82-2.67a15.52,15.52,0,0,1-.41,3.44c-.71,1.94-1.14,7.91,1.42,9.57,1.21.8,3.29,1.4,4.5.91,18-7.3,35.87-14.82,53.81-22.22,4.43-1.83,6.37-5.43,6.8-9.76,1.67-16.83,3.28-33.67,4.54-50.54.22-2.94.65-4.84,2.78-7.18a181.66,181.66,0,0,0,15.29-19.45c2-3,2.54-7,3.66-10.36l.86,9.38,1.25-.08c.2-13.64-.85-27.42,3.93-40.83l1,1.58c.57-1.54,1.07-2.89,1.59-4.31.22.62.4,1.14.79,2.27l.89-2.44c.22-.65.45-1.3.68-2,.32.92.66,1.86,1.27,3.55.68-2.64,1.18-4.55,1.74-6.73.3.66.52,1.17,1,2.29l1.58-5.17c.35,1.17.63,2.1,1.13,3.74.74-2.51,1.29-4.4,1.94-6.59.31,1,.55,1.8.8,2.59l.61.05c.5-1.81,1-3.62,1.66-6.06.25,1.34.39,2.11.53,2.88l.72.17,1.59-5.3c.33,1,.66,2,1,3l.65.06c.18-1.33.44-2.65.51-4s-.09-2.75-.08-4.12c0-2.41.65-4.2,4-3.08.08-1.21.18-2.17.21-3.14.21-8.65.74-17.32.47-26A26.49,26.49,0,0,1,623,296.73c2.31-6.74,3.5-13.88,5-20.88a65.84,65.84,0,0,0,.71-7.39c1.56,10.29,3,19.9,4.47,29.52l1.26-.1c-.08-1.64-.06-3.3-.26-4.94s-1.06-3.2-.87-4.7c1.48-11.58,3.25-23.12,4.72-34.7,2.65-20.82,5.16-41.67,7.74-62.5.46-3.66,1-7.31,1.42-10.33,3.06,35.7,6.17,72,9.29,108.36l.72,0a11.77,11.77,0,0,0,.31-1.74c.13-6.87.29-13.74.29-20.6,0-1.2-.69-2.39-1.17-3.94,5.35-12.22,6.63-25.92,8.35-40.25a14,14,0,0,1,.68,2c1.45,10.41,2.81,20.84,4.4,31.22.28,1.89,1.69,3.58,2.27,5.45a6.62,6.62,0,0,1-.29,3c-.13.64-.7,1.22-.71,1.83q-.11,17.74-.11,35.49c0,1.37,0,2.83,2,3,.42,0,1,1.2,1,1.87.14,2-.13,4,.09,5.93a21.56,21.56,0,0,0,1.27,4.18c.06.18.28.31.33.49.71,2.8,1.38,5.61,2.12,8.41.18.7.54,1.93.85,1.94,4.22.12,4.15,3.64,3.49,5.76-1.36,4.37,2.62,7.38,2.09,11.48,3.81-4.4,2.49-10.38,5.21-15.34.75,3.91,1.46,7.66,2.33,12.2l1.75-3.25,1.6,6.22,2.66-11c1.14,6.26,2.28,11.63,3,17.06a53.8,53.8,0,0,1,.18,8.89c-.16,6.28-.74,12.57-.6,18.84.23,10.53-.33,21-.62,31.56-.08,2.73.6,3.71,3.54,4,5.84.52,10.55-2.57,15.72-4.14,3.71-1.13,7.29-2.67,11-3.86a2.67,2.67,0,0,0,2.16-3c.06-10.85.53-21.7.3-32.54-.23-10.55.64-21,.6-31.57s.24-21.1.37-31.65.19-21.3.41-31.95a7.78,7.78,0,0,0-2.12-5.6,8.47,8.47,0,0,1-2-5c0-11.15.31-22.29.32-33.44,0-1.85-1.13-3.67-1.49-5.55-.29-1.51-.74-3.33-.19-4.61,1.44-3.37,3.69-6.4,5-9.8a24,24,0,0,0,1.22-7.73c.06-1.6-.73-3,1.83-3.46.78-.14,1.43-2.38,1.67-3.74a12.39,12.39,0,0,0-.22-4.15c-.3-1.74-.47-3.05,1.91-3.49.68-.12,1.36-1.85,1.5-2.91a17.38,17.38,0,0,0-.11-5c-.29-1.77-.41-2.89,1.82-3.58.87-.27,1.42-2.42,1.61-3.78a19.75,19.75,0,0,0-.35-4.44c-.13-1.32-.25-2.29,1.58-2.91,1-.34,1.72-2.36,2-3.72a15,15,0,0,0-.36-4.43c-.21-1.58-.41-2.94,1.93-3.16.6,0,1.39-1.58,1.51-2.5a18.93,18.93,0,0,0-.12-5c-.28-1.82-.52-3.06,2-3.72,1.85-.5,1.41-2.61.22-3.65a7.56,7.56,0,0,1-2.81-7.37,2,2,0,0,0-.54-1.62c-2.91-2.17-2.32-5.27-2.29-8.2.09-8,.66-16,.21-23.88-.39-6.94,3.57-12.64,3.71-19.3l1,0,1.51,6.31,1.8-2.45c.82,3.48,1.58,6.67,2.34,9.86l.75,0c.55-2.23,1.1-4.46,1.58-6.43l4.16,18a19,19,0,0,0,1.09-2.17c4.9-17.23,9.75-34.47,14.69-51.69,2-6.93,4.35-13.75,6.17-20.73.51-2-.29-4.28-.51-6.43,0-.47-.48-1.26-.35-1.35,3.24-2.34,1.27-5.82,2-8.69,0-.07.15-.11.83-.53,0,1.06,0,1.8,0,2.53-.08,2.21-1,4.55,1.13,6.4a1.41,1.41,0,0,1,.2,1.35c-3.54,3.32-1.39,7.27-.67,10.63,1.5,7.06,3.93,13.92,5.89,20.88Q806,93.18,816.81,131.54a40.31,40.31,0,0,0,1.87,3.94,19.39,19.39,0,0,1,.55,2.45q1.24,4.47,2.54,8.94a14.74,14.74,0,0,1,.58,1.86,33.32,33.32,0,0,0,.63,5c1.72,5.55,3.73,11,5.41,16.58.76,2.52.83,5.25,1.52,7.8,1.94,7.3,4.09,14.54,6.07,21.83s4.21,14.46,8.2,20.93a4.94,4.94,0,0,1,0,5.52,13.85,13.85,0,0,0-1.73,6.11c-.09,10.55.06,21.1.19,31.65,0,2.47-.18,4.68-2.33,6.38-1.73,1.38-2.17,3.31-2.17,5.58q.11,40.76,0,81.52c0,2.61.53,3.69,3.47,3.54,10.34-.49,20.69-.76,31.05-1,2.32,0,3.12-.74,3-3.12-.2-5.07-.12-10.15-.17-15.23,0-1.85.35-3.78-1.72-5.05-.39-.24-.4-1.67-.13-2.37,5.41-13.81,7.48-28.42,10.5-42.82,3.37-16.06,7.18-32,10.75-48q2.12-9.45,4-19a103.93,103.93,0,0,1,2.23-10.93,27.38,27.38,0,0,1,.55,3.56c.27,10.51,3.82,20.31,6.34,30.34,1.74,7,3.22,14,4.82,21,.09.39,0,1,.24,1.14,3.95,2.84,1.75,7.18,2.64,10.75s1.51,7.16,2.19,10.75c1.37,7.13,2.38,14.35,4.13,21.39s4.22,14.07,6.5,21.05c.43,1.34.79,2.21-.49,3.38a5,5,0,0,0-1.33,3.41c.16,20.61.43,41.21.63,61.81a3.44,3.44,0,0,0,2.45,3.6c2.73,1.09,5.39,2.35,8.55,3.74-.16-4.92.6-9.3-3-12.93a7.23,7.23,0,0,1-1.69-4.53c-.29-6.66-.26-13.33-.47-20,0-1.43-.72-2.83-.94-4.28a20.89,20.89,0,0,1-.11-3.54c.06-2,.67-4.2.17-6.07a11.65,11.65,0,0,1,.59-7.76c4.61,1.17,4.92.89,6.09-3.6,4-15.7,8.21-31.37,12.27-47.06,2-7.61,4.17-15.18,5.59-22.89,1-5.46.85-11.13,1.26-16.7q.28-4.09.87-8.15c.44,7.29.64,14.61,1.43,21.86.42,3.81,1.79,7.53,2.85,11.25q7.66,26.83,15.41,53.65c.23.81.62,1.57,1.28,3.21,5-17.94,10.55-34.8,9.68-52.89.36,5.5.35,11.06,1.2,16.49,1,6.25,2.57,12.41,4.11,18.56s3.36,12.28,5.07,18.41a4.57,4.57,0,0,0,1.48,2.36,19,19,0,0,0,.2-2.11c-.49-20.9-.89-41.79-1.56-62.68-.31-9.83-1.4-19.64-1.62-29.47-.12-5.61,1-11.24,1.22-16.88.69-21,1.22-42,1.77-62.94a49.6,49.6,0,0,0-.42-5.29c3.63-1.18,5.46.27,5.1,4-.59,6.14-.58,6.23,5.63,5.71,7.67-.64,6.84,1.16,6.57-7.67-.09-3,.83-6,1.27-9,.48-3.22,1-6.44,1.4-9.5,1.07,4.68,2.37,9.42,3.17,14.25a46.89,46.89,0,0,1,.08,8.63c0,1.68.61,2.36,2.3,2.22,2.58-.22,5.19-.17,7.72-.62.76-.13,1.71-1.51,1.84-2.42,1.16-8.47,2.18-17,3.22-25.46,2.79-22.72,5.7-45.42,8.27-68.16,1-8.52,1.15-17.13,1.72-25.7,0-.32.39-.62.74-1.14.36.43.77.69.79,1,.34,4.89.36,9.83,1,14.68,1.55,11.63,3.31,23.23,5.15,34.82q6.48,41,13.13,81.92a10,10,0,0,0,1.79,4.26c.16-1.59.33-3.17.49-4.76l.82,0c.07.8.17,1.6.19,2.41.16,6.56.38,13.12.42,19.69,0,2,1.2,2.44,2.66,3,3.91,1.53,5.38,7.93,2,10.45-4.2,3.12-4.78,6.92-4.52,11.68.55,10,.68,20.09.9,30.14,0,1.84.32,3.33,2.23,4.08a2.34,2.34,0,0,1,.91.75c1.48,1.86.83,10.94-.61,12.86a7.86,7.86,0,0,0-1.82,4.34c.4,16.61,1,33.22,1.46,49.84,0,1.23-.07,2.87-.81,3.65-2.06,2.17-1.84,4.65-1.77,7.23.34,12,.69,24.07.92,36.11,0,2.38.68,3.27,3.27,3.2,33.24-.92,66.49-1.68,99.73-2.57,15.32-.41,30.64-1,46-1.45a6.68,6.68,0,0,1,4,1.42c6.52,5.22,12.91,10.6,19.36,15.92.52.43,1.11.77,1.91,1.33a84.38,84.38,0,0,0-.08-9.58c-.35-2.95.68-6.22-1.75-8.85-.32-.34.26-1.65.59-2.44,5.45-12.95,8.2-26.58,9.92-40.43.5-4,.07-8.19.58-12.33-.39,15.35,5.26,29.26,10.11,43.33,1.09,3.15,3.18,5.95,4.63,9a5.44,5.44,0,0,1,0,2.83,19.67,19.67,0,0,0-.62,3.11c.63,14.21,1.36,28.42,2,42.64.09,1.9.89,2.87,2.49,3.93a33,33,0,0,1,6.3,5.63c2.63,3,3.4,3,7.12,1.59,8.4-3.16,16.47-7.56,25.64-8.09,2.41-.14,4.92,1.13,7.37,1.78s4.92,1.3,7.35,2c1,.3,2,.86,3,1.19,2.09.68,4.22,1.28,6.33,1.91V756.47H-11q0-52.41.05-104.81,0-19.86.21-39.71c0-2.49-1-5.94,3.67-5.61-.53-.08-1.06-.21-1.6-.25-2.11-.14-2.56-1.05-1.62-3a11,11,0,0,0,.43-3l.69-.19c-.55-1.2-1.52-2.33-1.52-3.46q-.13-59.67-.07-119.34c0-16.31.3-32.63.52-48.94a10.55,10.55,0,0,1,.93-2.85c.79.76,2,1.39,2.28,2.3.89,2.85,3.23,3.38,5.39,3,3-.46,5.07.18,6.71,3l2-2.48c2.35,2.3,4.57,4.68,7,6.76a6.12,6.12,0,0,0,3.52,1c2.41.08,4.83-.32,7.22-.13,1,.08,1.92,1.17,2.88,1.81.61.4,1.4,1.28,1.79,1.13,3-1.14,4.41.85,6,2.72.42.52.92,1,1.26,1.33,1.17-1.64,2.07-3.39,3.43-4.59.75-.66,2.35-.68,3.46-.44.36.07.64,1.91.46,2.84-.39,2-1.09,4-1.72,6.13,2.69.66,4-.77,5.14-2.89a5.29,5.29,0,0,1,6.95-2.15,38.28,38.28,0,0,0-2.93,4.48c-.75,1.53,0,2.81,1.66,3.15a40.54,40.54,0,0,0,5.6.66c4.2.23,5,1.29,4.36,5.47-.09.52.46,1.14.69,1.73a9.58,9.58,0,0,1,1,2.66c.27,4.5.36,4.62,4.21,2.41,1.75-1,2.58-.4,3.07,1.29s-.3,2.56-1.92,2.47c-3-.16-4.77.86-5,4.11,0,.58-1.08,1.67-1.4,1.58a4.89,4.89,0,0,1-2.62-1.57c-2.4-3.35-2.37-3.46-6-1.57a12,12,0,0,1-9.23,1.18,4.45,4.45,0,0,0-5.28,1.54c-.74.91-2.29,1.22-3.53,1.64a13,13,0,0,0-2.95,1c3.47.13,7,1.48,10.31-.6.49-.3,1.91-.14,2,.14.8,2.16,2.17,1,3.61,1.06A64,64,0,0,1,60,478.68c6.42,1.09,12.79,3.21,19.23,3.38a182.11,182.11,0,0,1,31.66,3.34c10.86,2.21,21.91,3.49,32.9,5,2.09.28,4.3-.51,6.46-.57,7.71-.22,15.5.94,23.06-1.55,1.88-.62,3.78-1.67,5.66-1.65a13.9,13.9,0,0,1,6.52,1.68c3.69,2.15,7.3,1.89,11.22,1.09,4.08-.84,8.26-1.78,12.38-1.66,6,.16,12.06.82,17.5,3.76,10.35,5.6,21.64,7.31,33.11,8.69a55.46,55.46,0,0,0,20.39-1.05,1.48,1.48,0,0,1,.88,0c5.91,2.34,12.28,1.42,18.35,2.59a5,5,0,0,1,1.65.65,14.6,14.6,0,0,0,11.66,2c4.43-1,8.08,1.89,12.06,3.39a57.57,57.57,0,0,0,14.53,3.41c8.21.82,16.5.93,24.76,1.24a19,19,0,0,0,4.27-.63c3.86-.77,7.68-1.82,11.57-2.34,4.81-.64,9.68-.85,14.51-1.28s9.48-.74,14.18-1.38a10.4,10.4,0,0,0,5.08-2c5-4.19,10.32-6.34,15.88-3.55m18.16,4.48,490.55-69.91c0-4.35,0-8.25,0-12.15a1.28,1.28,0,0,0-.64-.93c-3.1-1.43-6.22-2.82-9.72-4.39,0,4.24-.05,7.87,0,11.5a2.25,2.25,0,0,0,1,1.64C931.87,432.86,934.92,434.21,938.22,435.72Zm-70.71-51.07c0-5.52-2.36-8.43-7-9-5.46-.73-11,1.94-12.3,6.72C854.72,382.87,860.8,384.08,867.51,384.65ZM927.61,406c0,3.84,0,6.91,0,10a2,2,0,0,0,.75,1.5c3.16,1.53,6.38,2.94,10.1,4.62,0-2.77.14-4.85,0-6.9-.14-1.63-.14-4.05-1.13-4.69C934.56,408.71,931.31,407.65,927.61,406Zm-195.87.5-17.93,6.65a11.58,11.58,0,0,0,2.38,1c3.13.15,6.27.26,9.4.32,7.75.16,7,2,6.63-7.23A5.13,5.13,0,0,0,731.74,406.51Zm196.51,26c-.67,4.44-.63,4.34,2.66,5.89,3.09,1.46,7,2.08,7.62,6.58a59.63,59.63,0,0,0,.14-7.05,1.93,1.93,0,0,0-1-1.34C934.66,435.18,931.58,433.9,928.25,432.47ZM1096,425.69a23.1,23.1,0,0,0,.72,5.39c.19.53,2.14.4,3.27.58C1100.78,426.06,1100.55,425.65,1096,425.69Zm72.22-1.19h-3.68c-.8,5.45-.31,6.16,3.94,5.41C1168.43,428.14,1168.34,426.32,1168.26,424.5Zm69.92,4.26a57.83,57.83,0,0,0-1.25-5.84,5.22,5.22,0,0,0-2.59.25,42.43,42.43,0,0,0-.46,5.59Zm-96.46-3.86c-.8,5.13-.42,5.68,3.56,5.53C1146.46,425.61,1145.82,424.56,1141.72,424.9Zm69-1.16c-.82,5.43-.31,6.14,3.57,5.13C1215.07,423.65,1214.81,423.27,1210.76,423.74Zm-90.33,1.9-1.34.13.47,4.84,1.21-.12C1120.65,428.87,1120.54,427.25,1120.43,425.64Z"/><path class="cls-3" d="M344.53,513.2a1.85,1.85,0,0,0-1.42-.29c-4.13,1.46-7.76-1.06-11.66-1.4a10.2,10.2,0,0,1-4.9-1.94c-4.35-3-9.15-4.27-14.45-2.91-2.48.64-4.69-.31-6.88-1.35-5.14-2.45-10.66-2.73-16.23-2.75-.78,0-1.84.24-2.32-.17-2.83-2.38-6-1.42-8.82-.6-6.38,1.86-12.6.2-18.89,0-6.1-.18-11.87-2.18-17.85-3-4.39-.64-8.3-3.23-12.19-5.34-2.82-1.52-5.85-1.79-8.75-2.68-6.86-2.1-13.73-1.28-20.54.51-4.39,1.15-8.65,1.59-12.75-1.3-2.6-1.84-5.6-1.45-8.62-.59-6,1.72-12,3.47-18.42,2.56-4-.56-8.09,0-12.16.38-5.66.54-11.22-1.17-16.83-1.87-13.74-1.71-27.1-6-41.11-5.91a154.83,154.83,0,0,1-22.13-1.74c-.1,0-.22,0-.29,0-6.73-4.06-14.13-2-21.28-2.41-8.61-.45-17.2-1.3-25.82-1.66-5.94-.24-11.93-.22-17.74,1.57a4.54,4.54,0,0,1-4.16-1C-3.89,477.7-6,475.72-9,475.68V339.41c1.82-.07,3.58,0,5.12,1.18a3,3,0,0,0,3.4.35c2.38-1.52,5.35-1.38,7.7-3,1-.68,2.66-1.91,3.4.25.59,1.72,1.85,3.83-.64,5.28-.55.32-1.52.21-1.35,1.23.14.79.94,1,1.54,1.28a8.06,8.06,0,0,0,9.26-1.88c.52-.63.76-1.17.05-1.78s-1-1.25-.28-2a2,2,0,0,1,2.42-.67c1.86,1,4.37,1.05,5.25,3.52a1.27,1.27,0,0,0,1.65.91c3.41-1,5.62,1.09,7.85,3a4.08,4.08,0,0,0,2.9,1.28c3.54-.2,7,.18,10.65-.73A8.28,8.28,0,0,1,58,350c2.89,2.92,6.16,6.22,11.22,4,1.39-.61,2.89.37,4.32.74.77.2,1.53.77,2.25.71,2-.17,3.7-1.92,5.48,1.43,1,1.85,2.06-1.37,3.07-3.27.41,3.95,2.69,4.53,5.51,4.35,2.26-.15,3.63,1.44,5,2.85a4,4,0,0,0,2.51,1.37c1.21.16,2,.63,2.18-1.43.23-2.81,2.85-3.67,4.63-1.56,2,2.41,5.36,2,7.44,4.2,3,3.1,6.09,5.35,11.07,3.69,3.07-1,6.7.15,10-.69,1.4-.35,2.33.43,3.25,1.55,1.94,2.36,3.85,2.33,5.7.08.76-.92,1.51-1.33,2.51-.51s1.28,1.76.16,2.75c-.49.43-1.43.69-1.08,1.56a2.08,2.08,0,0,0,2.3,1c1.28-.08,2.55-.48,3.83-.5,2.23,0,4.09,0,5.89,2.33,1.54,2,4.86,2.31,7.67,2.41,4.53.16,9.18-.72,13.48,1.54.7.36,1.52.46,2,1.17,1.91,2.61,4,3.41,6.65.85.79-.76,1.73-.74,2.52.36,1.7,2.38,3.92,2.37,6.76,2.22,2.56-.13,5.53-1.21,8.14.89,1.71,1.38,4,.76,6.09.58,6.35-.56,12.66-1.05,18.17,3.26a5.45,5.45,0,0,0,6.61.42c4.94-2.76,9.44-.26,13.72,2,1.47.78,2.62,1.43,4.38,1.13,4.29-.74,8.36.84,12.49,1.67.79.15,1.44.57,2.2,0,1.6-1.11,2.73-.29,3.91.83,3,2.82,5.67,2.82,8.64,0,.86-.82,1.62-.43,2.47-.21,2.1.52,4.16,1.35,6.41.72a1.54,1.54,0,0,1,2,.94,1.26,1.26,0,0,1-.89,1.86c-.85.27-2,.55-1.33,1.74.55.95,1.82,1.68,2.82.89,3-2.36,6.15-1.42,9.33-.66,1.6.38,3.14,1.21,4.31-1.05.72-1.4,2.77.48,3.79-.7,1.6-1.83,1.94-.08,2.68.77s2,.78,3.05.88c.9.08,2.29-.51,2.45.92.11,1.08-1.14,1.17-2,1.45a6.53,6.53,0,0,0-.79.4c.32,1.08,1.11.74,1.69.54,1.49-.53,1.91.35,2.33,1.5,1.41,3.86,3.46,5.37,7.45,5.3a27.61,27.61,0,0,1,6.48.92,16.48,16.48,0,0,0,4.75.24c1.2-.08,2.57-.38,2.85-1.73.32-1.53-.66-2.62-1.94-3.37-.57-.34-1.58-.11-1.68-1-.13-1.11,1-1,1.64-1.41s1.43-.69,1.62-1.23c1.12-3.14,3.6-3.3,6.32-3.16,2.51.12,5.24-.67,7,2.13.33.55,1.08.85,1.66,1.24,3.15,2.14,6.71,4,5.54,8.89-.22.91.6,1.86,1.3,2.6,1.11,1.2,2.18,1.61,2.78-.39s1.83-2.66,3.81-2.53,3.42-.1,4.19-2.39c.58-1.72,1.46-.6,1.94.38.8,1.62,1.65,2,2.69.21.37-.65.85-1.26,1.63-.64s.24,1.24-.2,1.8c-1.78,2.25-.15,2.78,1.62,3a31.62,31.62,0,0,0,4.77.05,7.13,7.13,0,0,1,4.71,1.38c2.36,1.72,5.11,1.22,7.75.49.67-.19,1.42-.42,1.4-1.31a1.67,1.67,0,0,0-1.27-1.51,6.86,6.86,0,0,1-3.08-2.27c-.69-.85-1-1.78,0-2.63a1.8,1.8,0,0,1,2.68,0c1.11,1.1,2.36,2,2.68,3.8.41,2.36,3.9,4.13,6.18,3.19a2.33,2.33,0,0,1,2.71.31c3.2,2.61,6.47,4.24,10.42,1.17a2.87,2.87,0,0,1,3.39.3c1.34,1.15,2.83,1.22,4.45,1.28,2.68.09,5.14.29,3.95-3.76a2,2,0,0,1,1.85-2.61c1.63-.12,1.89,1.23,2.29,2.57.57,1.91-2.49,4.3-.42,5.09,2.8,1.07,5.8,2.3,9,2.27,4.92,0,9.76.33,14.77-.33,6.39-.84,13,.19,19.58.45,4.64.18,9.29-.6,13.95.37,1.67.35,2.59.75,3.07,2.54.71,2.59,1.53,2.67,3.54.72s7.62-2,9.68-.17a25.4,25.4,0,0,1,2.32,2.32c1.77,2.06,3.15,2.46,4.64-.42,1-2,5.38-2.48,7.55-1a7,7,0,0,0,6.8,1.16c5.29-1.57,10-.1,12.8,5.21a20,20,0,0,0,1.32,2c.33.48.57,1.15,1.29,1.05s.91-.87.91-1.38c0-3.2,2.28-3.87,4.78-4.7s3.42.36,3.85,2.27c.56,2.52.31,5.65,4.5,3.81a1,1,0,0,1,1.19.68,1.64,1.64,0,0,1-.85,2c-1.69,1.05-3.49,1.91-5.15,3-2.39,1.57-2.51,2.61-.38,4.34,2.76,2.24,6.45,2.35,9.57,3.81.86.4,1.82-.64,2-1.41.63-2.18,2.23-3.93,2.43-6.34s2.85-3.68,2.68-6.35a16.44,16.44,0,0,1,.75-4.07l.7.52c.08,9.23-1.52,18.33-2,27.51-.31,5.43-1.5,10.78-1.33,16.24-.09,1.18-.17,2.35-.26,3.53-2.14,1.81-1,4-.64,6a34.47,34.47,0,0,1-2.32,6.55c-3.19,3.25-7.49,4.41-11.54,5.95-11.77,4.49-23.23,9.67-34.82,14.58-6.07,2.58-12,5.56-18.06,8.06-2.07.85-4.94-.63-6.44,2.19-.13.24-1.21.2-1.71,0-5.44-2.45-11.61-.15-17.07-2.74-4.31-2.05-9.06-1.83-13.72-1.89a50.48,50.48,0,0,1-8.31-.46c-3.07-.55-4.77-2.61-6.56-4.7a2.87,2.87,0,0,1-.58-1.93c.28-2.95.6-5.9,1.09-8.82.27-1.6,1.4-1.41,2-.32.92,1.65,2.53,3.18,1.61,5.4-.15.37-.46.77.05,1a2,2,0,0,0,1.15.08c.59-.1,1-.69.63-1.08-1.87-2.16.84-5.63-2.19-7.46-.52-.32-.42-1.09.1-1.57s1.74-.78,2.19-.24c1.71,2,4.23,1.46,6.29,2.24-.46-2.57-1.36-4.76-4.09-5.79-.82-.31-2.23-.82-1.94-1.91.35-1.36,1.81-.78,2.85-.81.3,0,.6,0,1.4,0-2.25-1.38-2.22-2.64-.75-4.3.73-.83,2.07-1.76,1.34-3.33l1.22-.51c-.1-.13-.19-.35-.3-.35-.61,0-.73.46-.9.89-2.23.47-3.58,2.75-6.15,2.77-1.21,0-.72,1.86-1.19,2.8s-.44,2.85-1.92,2.57-3.33.14-4.14-1.69c-.19-.42-.06-1.08-.8-1s-.8.84-.74,1.41a17.54,17.54,0,0,0,.58,3.22c.41,1.34.24,1.79-1.22,2.59-1.23.67-2.95,2.16-2.92,4.12,0,2.57,1.8,1.25,2.71.83,1.46-.68,2.38-.32,2,1.13a9.28,9.28,0,0,0-.09,5.87c.47,1.35-.73,2.27-2.07,2.49.49,1.26,1.4.82,2,1.24-.27.17-.67.27-.74.48-1.47,4.24-4.92,3.55-8.18,3.33-.2,0-.41,0-.6,0-6.29-1-11.88,1.38-17.4,3.8-2.85,1.26-6,1.5-8.83,2.6a2.71,2.71,0,0,1-2-.17c-6-3.3-12.67-3.32-19.28-4.1-5.83-.68-11.75-.29-17.58-2.1m90-24-.3.25a1.2,1.2,0,0,0,.21.13,1,1,0,0,0,.24,0Z"/><path class="cls-3" d="M393.93,606.18a1.5,1.5,0,0,0,0-3,1.5,1.5,0,0,0,0,3Z"/><path class="cls-3" d="M463.06,490.36l-25.84-5.77-.4,3a220,220,0,0,1,38.69,6.11l.79-2.9a224.39,224.39,0,0,1-34.86-10.65l-.4,2.95L452.26,482c1.9-.18,1.92-3.18,0-3L441,480.05a1.5,1.5,0,0,0-.4,2.94,225.63,225.63,0,0,0,34.87,10.66c1.87.41,2.68-2.43.79-2.9a224.1,224.1,0,0,0-39.48-6.21c-1.68-.11-2,2.58-.39,2.95l25.83,5.76c1.88.42,2.69-2.47.8-2.89Z"/><path class="cls-3" d="M455.73,486.84l2.27-3.12c.83-1.12-.52-2.48-1.69-2.2a8.24,8.24,0,0,0-5.75,5.1,1.51,1.51,0,0,0,1.84,1.85,11.71,11.71,0,0,0,5.14-4c1-1.4-1.17-3-2.35-1.82q-6.17,6-12.64,11.66l2.56,1.06a5.76,5.76,0,0,0-8.91-4.75,1.52,1.52,0,0,0,.36,2.74c3.46,1.23,7.05.15,10.36-1,1.79-.65,1.08-3.45-.8-2.9a77.1,77.1,0,0,1-9.74,2.21l.8,2.89q6.19-1.87,12.26-4.11c1.28-.47,1.56-2.55,0-2.89-4.92-1.1-9.67.43-14.26,2.11a1.55,1.55,0,0,0-1.05,1.84c.47,2.75,4.25,1.14,5.79.65q4.09-1.32,8.1-2.93l-1.9-1.44c0,.34-.45.73-.6,1a3.2,3.2,0,0,0-.42,1.54,3.69,3.69,0,0,0,1.18,2.64c1.66,1.56,4.42,1.45,6.52,1.2a16.62,16.62,0,0,0,1.72-.27,7.76,7.76,0,0,0,1.58-.31c1.35-.71.12-1-.35-1.31a16.25,16.25,0,0,1-1.36-1l-6.59-5c-1.31-1-2.64.86-2.05,2a57.13,57.13,0,0,0,8.84,13c1.07,1.2,2.77-.1,2.51-1.46a9,9,0,0,0-4.28-6,1.51,1.51,0,0,0-2.2,1.69,9.29,9.29,0,0,0,2.81,4.47,1.51,1.51,0,0,0,2.51-1.46,12.31,12.31,0,0,0-1.52-3.72l-.54,2.06c-.18.14-.11,0,.08.2a2.93,2.93,0,0,0,.52.41,3.67,3.67,0,0,0,1.35.53,2.32,2.32,0,0,0,2.34-1l-2.36.3a4.49,4.49,0,0,1,1.11,2.15l2.2-1.69c-1.92-1.32-5.05-4.32-7.57-2.69a2.77,2.77,0,0,0-1.09,1.43,7.44,7.44,0,0,0-.2.78c-.11.46-.37.61.36.27s.28-.36-.19-.69l-1.18-.85-2.36-1.7a1.51,1.51,0,0,0-2.26,1.3,9.44,9.44,0,0,0,3.2,6.49,1.52,1.52,0,0,0,2.51-.66,9.8,9.8,0,0,0-1.26-8.55c-.79-1.12-2.89-.85-2.8.76a33.76,33.76,0,0,0,2,9.68,1.51,1.51,0,0,0,2.95-.4,17.67,17.67,0,0,0-1-8.12c-.55-1.48-3.06-1.41-3,.4a60.48,60.48,0,0,0,2.24,13.09l.69-1.69c.46,0,.51,0,.16-.24l-.25-.26c-.24-.27-.44-.58-.67-.87a8.77,8.77,0,0,0-1.72-1.61,6.11,6.11,0,0,0-4.34-1.23,1.51,1.51,0,0,0-.76,2.79l2.28,1.66.75-2.8a4.55,4.55,0,0,1-2.28-.22c-.35-.14-.67-.48-1-.59-.48-.57-.57-.26-.25.92l.53-.51,4.46-4.26a1.5,1.5,0,0,0,0-2.12,4.21,4.21,0,0,0-5-.49,1.51,1.51,0,0,0,.75,2.79,3.79,3.79,0,0,0,3.87-3.54,1.5,1.5,0,0,0-1.5-1.5,8.76,8.76,0,0,0-6.13,3.57l2.79.76a2.66,2.66,0,0,0-3.35-2.48c-2,.45-2.46,2.55-2.59,4.29a1.51,1.51,0,0,0,2.56,1.06,12.74,12.74,0,0,0,3.67-6.65,1.52,1.52,0,0,0-2.51-1.46,15.43,15.43,0,0,0-5,7.35c-.45,1.38,1.11,2.15,2.2,1.69l2.51-1.06,1.26-.54.82-.33c-.14-.13-.12-.1,0,.06.67.35,1.45,1.63,2,2.19l2.14,2.42,1.82-2.36a16.39,16.39,0,0,1-4.69-3.58L441.62,502a61.65,61.65,0,0,1,7.32.2c1.67.14,2.08-2.68.4-2.95a21.21,21.21,0,0,0-5.28-.2c-1.91.18-1.93,3.18,0,3a17.67,17.67,0,0,1,4.48.1l.4-3a61.65,61.65,0,0,0-7.32-.2,1.52,1.52,0,0,0-1.06,2.56,18.55,18.55,0,0,0,5.3,4.05,1.5,1.5,0,0,0,1.81-2.35l-2.8-3.17c-.76-.86-1.54-2.05-2.73-2.36s-2.1.32-3.05.72l-3.77,1.6,2.2,1.69a12.71,12.71,0,0,1,4.27-6l-2.51-1.46a9.82,9.82,0,0,1-2.89,5.32l2.56,1.06c0-.38.19-.8.2-1.16s-.26.16-.26-.65a1.52,1.52,0,0,0,2.8.76,5.35,5.35,0,0,1,3.54-2.09l-1.5-1.5c-.06.43-.52.55-.87.54l.76,2.8a1.14,1.14,0,0,1,1.37,0v-2.12l-3.57,3.4c-.91.87-2.39,1.85-2.1,3.3.22,1.09,1.45,1.91,2.37,2.37a7.09,7.09,0,0,0,4,.71,1.51,1.51,0,0,0,.76-2.79l-2.28-1.66-.75,2.8c1.93-.24,3.16,1,4.26,2.4s2.4,2.14,4.08,1.4a1.5,1.5,0,0,0,.69-1.69,55.81,55.81,0,0,1-2.14-12.3l-2.95.4a15.59,15.59,0,0,1,.87,7.32l2.94-.4a31.39,31.39,0,0,1-1.86-8.88l-2.79.76a6.89,6.89,0,0,1,1,6.23L450,500a6.39,6.39,0,0,1-2.32-4.37l-2.26,1.29a47.85,47.85,0,0,0,4.23,3,2.28,2.28,0,0,0,3.12-.68,3.17,3.17,0,0,0,.46-1.3c.06-.48-.06-.41.52-.18a22.27,22.27,0,0,1,3.91,2.59c1.14.78,2.49-.51,2.2-1.7a7.65,7.65,0,0,0-1.87-3.47,1.52,1.52,0,0,0-2.36.3c.75-.19.89-.38.42-.56l-.48-.38a3.93,3.93,0,0,0-.93-.49,2.29,2.29,0,0,0-2.22.26,1.53,1.53,0,0,0-.54,2.05,9.56,9.56,0,0,1,1.21,3l2.51-1.46a6.47,6.47,0,0,1-2-3.14l-2.2,1.69a6.06,6.06,0,0,1,2.89,4.21l2.51-1.46a54.61,54.61,0,0,1-8.37-12.42l-2,2.05c2.53,1.93,5,4,7.62,5.79a4.51,4.51,0,0,0,3.6.9,2.28,2.28,0,0,0,1.51-2.86c-.87-3.19-4.45-1.7-6.67-1.48-1,.1-3.3.42-4-.47-.39-.46,0-.72.26-1.17a3.35,3.35,0,0,0,.55-1.81,1.52,1.52,0,0,0-1.9-1.45c-1.93.77-3.87,1.5-5.83,2.17-.9.31-1.81.61-2.72.9l-1.38.42-.91.27c-.05.3.17.51.64.61l-1,1.85c4-1.47,8.34-3.07,12.66-2.11v-2.89q-6.08,2.24-12.26,4.11a1.5,1.5,0,0,0,.8,2.89,79.26,79.26,0,0,0,9.74-2.2l-.8-2.9c-2.81,1-5.81,2.1-8.76,1.05l.36,2.74a2.74,2.74,0,0,1,4.39,2.16,1.52,1.52,0,0,0,2.56,1.06q6.48-5.65,12.64-11.65L455,482.93a8.07,8.07,0,0,1-3.34,2.64l1.84,1.85a5.14,5.14,0,0,1,3.66-3l-1.7-2.2-2.27,3.12c-1.14,1.56,1.46,3.06,2.59,1.51Z"/><path class="cls-1" d="M1293.22,257.53a1.5,1.5,0,0,0,0-3,1.5,1.5,0,0,0,0,3Z"/><path class="cls-1" d="M1311.81,255.07c-5.69,3.63-12.46-.29-18.6-.49a26.66,26.66,0,0,0-14.36,3.91,3,3,0,0,0-1.07,4.1c2,2.74,4.47,3.5,7.8,3.28,5.49-.36,10.52-.93,16,0,3.73.63,5.41-4.83,1.6-5.79a22.9,22.9,0,0,0-13,.39c-2.66.86-3,5.12,0,5.78a23,23,0,0,0,24.09-9.39c1.34-1.88-.46-4.54-2.59-4.51-8.36.1-16.79,1.6-25.08,2.58-3.79.45-3.83,6.46,0,6,8.29-1,16.72-2.48,25.08-2.58l-2.59-4.51a16.76,16.76,0,0,1-17.32,6.63v5.78a16.9,16.9,0,0,1,9.83-.38l1.6-5.79a55.12,55.12,0,0,0-10.34-.89c-1.33,0-9,1.67-9.92.36l-1.08,4.11c6.65-3.89,12.48-2.93,19.69-1.6,4.69.87,9.16.81,13.27-1.82,3.25-2.07.24-7.26-3-5.18Z"/><path class="cls-1" d="M1203.44,275.2c3.38,1.18,7.31,3.35,11,2.77,3.42-.55,6.76-2.63,9.58-4.54,3.18-2.14.35-7.14-3-5.18-2.71,1.57-5.8,3.07-9,2.75-2.42-.24-4.32-1.7-6.74-1.89-3.85-.3-3.83,5.7,0,6,1.39.11,2.87,1.25,4.28,1.55a15.8,15.8,0,0,0,4.7.28,23.74,23.74,0,0,0,9.81-3.51l-3-5.18c-2.19,1.47-5.47,4-8.24,3.82-2.35-.11-5.47-1.87-7.7-2.65-3.66-1.28-5.23,4.52-1.6,5.78Z"/><path class="cls-1" d="M712.8,258.8c-9.13-2.73-18.7-3.73-28.13-4.84-3.39-.4-4,5.07-.79,5.89,5,1.3,21.84,8.72,23.48-1,1.61-9.53-13.92-7-18.77-6.61l.79,5.9c3.49-.8,11.47-1.38,9.28-7a4.62,4.62,0,0,0-3.85-3c-1.44-.2-2.49.39-3.8.74a16.4,16.4,0,0,1-8.19.65l-.8,5.89a26.45,26.45,0,0,0,7.52-.75c2.42-.65,4.59-2,7.07-2.39s3-4.45.72-5.48a10,10,0,0,0-6.1-1c-.73.1-7.55,1.9-7.47,2.37l-1.38,3.39c.84-.57,6.59.65,7.84.61A46.17,46.17,0,0,0,698.9,251c3.15-.71,2.54-4.81,0-5.79-3.34-1.29-6.95-.55-10.42-1.28-3-.62-5.58-1.33-8.56-.12-2.09.86-3.33,4.28-.72,5.49,7,3.21,15.35,1.44,22.39-.76,3.67-1.15,2.1-6.94-1.6-5.79-5.21,1.63-12.5,3.79-17.76,1.36l-.71,5.49c2.76-1.13,5.49.35,8.29.7,2.57.32,5-.26,7.5.7v-5.79a37.21,37.21,0,0,1-11.52.9c-2.29-.2-4.4-1.06-6.44.31a3.16,3.16,0,0,0-1.38,3.39c1.29,8.21,12.58.49,16.33,2.22l.72-5.49c-4.6.66-8.09,3.06-13,2.93-3.31-.08-4.16,5.24-.8,5.9a22,22,0,0,0,6.57.45,19.83,19.83,0,0,0,2.43-.39c2.5-.57,1.65-.4,2.6-2.7l2.1-2.09a49.17,49.17,0,0,1-7.13,1.76c-3.25.74-2.61,6.14.8,5.89,1.2-.09,11.28-.58,11.28-.52,0-.45-13.13-3.35-14.4-3.67l-.8,5.89c8.91,1.05,17.91,2,26.54,4.62,3.7,1.11,5.29-4.68,1.59-5.78Z"/><path class="cls-1" d="M697.27,248.77A5.86,5.86,0,0,0,702,254c1.57.38,3-.07,4.6.11s2.72,1,4.3.69c2.72-.6,4.57-4.19,2.34-6.42-1-1-2.9-1.27-4.28-1.45a15.46,15.46,0,0,0-2.55-.12l-1,0c-1-.17-1.16.56-.32,2.19h-4.24a10.41,10.41,0,0,0,9.63,2.79c3.78-.75,2.18-6.53-1.6-5.79a4.12,4.12,0,0,1-3.79-1.25,3,3,0,0,0-4.24,0,4.65,4.65,0,0,0,.81,7.06c2.48,1.71,5.86.62,8.63,1.54l-2.09-2.09.1.46.31-2.31c1.06-.45,1.25-.74.57-.89a3.94,3.94,0,0,0-1.07-.29,11,11,0,0,0-2.29-.14,7.84,7.84,0,0,0-2.29.09c-.55.27-.45-1.13-.25.51a3.1,3.1,0,0,0-3-3c-1.47,0-3.2,1.39-3,3Z"/><path class="cls-1" d="M707.55,258.43a12.14,12.14,0,0,0,14.84,1.64,3,3,0,0,0-2.32-5.49c-1,.21-3.42,1.15-4.3.84s-.7-1.55-.75-2.38l-5.89.8c2.24,8.42,12.39,9.7,17.47,3.13,1.34-1.74-.47-4.74-2.59-4.52a10.69,10.69,0,0,0-4.22,1.24c-3.41,1.83-.38,7,3,5.18l1.2-.42-2.59-4.51c-2.09,2.7-5.73,1.2-6.5-1.7-.86-3.2-6.08-2.64-5.9.8.15,2.7.65,5.64,3,7.31,2.79,2,6.59.67,9.63,0l-2.31-5.48a6,6,0,0,1-7.57-.71c-2.79-2.67-7,1.57-4.24,4.25Z"/><path class="cls-1" d="M514.61,276.05a38.45,38.45,0,0,0,23.29,3.1c5.05-.9,9.64-1.86,14.8-1.37,5.4.51,10.79,1.5,16.15,2.27,3.78.55,5.41-5.23,1.6-5.78-8.54-1.24-17.68-3.54-26.33-2.4-9.47,1.26-17.3,3.23-26.49-1-3.48-1.61-6.53,3.56-3,5.18Z"/><path class="cls-1" d="M561.64,273a67,67,0,0,0-14.78-3.4c-4.14-.51-5.94-2.05-9.24.65-2.1,1.72-6.33,2.53-6.09,6,.28,3.92,7.16,4.94,9.93,6,3.59,1.42,5.15-4.38,1.59-5.79-2.23-.89-5-1.56-7-2.84l1.48,2.59c0,2.18,3-.45,3.83-1.24,1.78-1.71.37-.19-.13-.39a14.16,14.16,0,0,0,3,.73c5.47.89,10.54,1.57,15.79,3.45,3.64,1.31,5.21-4.49,1.6-5.78Z"/><path class="cls-1" d="M362.37,267.24c-4.51,4.7-7.51-3.89-11.32-5.54-4.34-1.88-8.83-.3-12.55,2.16-3.21,2.12-.21,7.32,3,5.18,1.72-1.14,4.1-2.69,6.32-2.11s2.69,2.48,3.93,4.06a9.13,9.13,0,0,0,4.08,3,9.93,9.93,0,0,0,10.76-2.54c2.67-2.79-1.57-7-4.25-4.25Z"/><path class="cls-1" d="M353.86,272.34a8.28,8.28,0,0,0-3.64-12.55,8.8,8.8,0,0,0-7.15.52c-2.52,1.24-5.5,5.21-8.54,4.47l.72,5.48a26.48,26.48,0,0,1,12.18-4.83c3.81-.53,2.18-6.31-1.6-5.79a30.27,30.27,0,0,0-13.61,5.44c-2,1.41-2,4.83.71,5.48,3.23.79,6.05-.12,8.74-2,1.28-.9,2.48-2.27,3.95-2.84,2.7-1.05,4.85,1,3.06,3.59-2.2,3.18,3,6.19,5.18,3Z"/><path class="cls-1" d="M213.12,253.79c-3.43-1.55-2.46-8-5.49-10.71a7.05,7.05,0,0,0-8.32-.9,6.07,6.07,0,0,0-2.58,6.76c1,3.8,4.68,5.28,8.15,6.12,2.08.51,3.55-.95,3.8-2.89l1.23-9.91-3,3c-.82-1.45-1.22-1.66-1.17-.62a10.93,10.93,0,0,0-.06,2,12.56,12.56,0,0,0,.35,2.21,11.93,11.93,0,0,0,3.34,5.52c3.17,3,7.55,3.54,11.6,2.36,3.23-.94,2.63-5.88-.8-5.9a6.06,6.06,0,0,1-6.14-4.16L208.55,249a18.39,18.39,0,0,0,5,5.57c1.83,1.29,8.12,2.88,8.75,5.08l.78-2.92s-6.88-1.75-7.37-1.89c-4-1.14-5-2.7-6-6.52s-1.7-6.76-6.21-7.2l1.51,5.59,1.74-.46-.79-5.89c-8.2,1.93-14.57,5.66-23.38,4.45-3.78-.52-5.41,5.26-1.6,5.78a39.87,39.87,0,0,0,12.62-.05c4.86-.88,9.17-3.27,14-4.4,3.32-.78,2.56-5.89-.8-5.89a8.76,8.76,0,0,0-4.76,1.28c-2.77,1.59-1.29,5.31,1.51,5.59-.4,0,1.76,6.95,2.19,7.85a8.82,8.82,0,0,0,4.92,4.82c3.1,1.25,7,1.58,10.34,2.2,2.61.49,4.3.86,6.37-1a3,3,0,0,0,.77-2.92c-1.9-6.58-11-6.49-14.4-12.07-1.71-2.78-6.69-1-5.49,2.31a12.28,12.28,0,0,0,11.93,8.56l-.8-5.89c-3.18.93-6.63,0-7.55-3.69-.39-1.55.2-3.08-.22-4.61a4.3,4.3,0,0,0-4.69-3.36,3.11,3.11,0,0,0-3,3l-1.23,9.91,3.79-2.89c-3.26-.8-1.41,3.34-.53,5.3a8.06,8.06,0,0,0,4.15,4.4c3.49,1.57,6.55-3.6,3-5.19Z"/><path class="cls-4" d="M396.51,605.41a1.5,1.5,0,0,0,0-3,1.5,1.5,0,0,0,0,3Z"/><circle class="cls-5" cx="396.87" cy="600.51" r="8.37"/></svg>