<svg id="Layer_1" data-name="Layer 1" xmlns="http://www.w3.org/2000/svg" width="1341" height="756" viewBox="0 0 1341 756"><defs><style>.cls-1{fill:#00322b;}.cls-2{fill:#55aeba;}.cls-3{fill:#177479;opacity:0.8;}.cls-4{fill:#a68587;}.cls-5{fill:#fff;}.cls-6{stroke:#000;stroke-miterlimit:10;}</style></defs><polygon class="cls-1" points="1340.55 570.43 -2.26 570.43 -2.26 -4.54 1018.73 -4.54 1340.55 -4.54 1340.55 570.43"/><path class="cls-2" d="M980.71,44.19c-6.67,0,47.45-48.83,70.34-44.19s113.17-.31,113.17-.31L1269.61,0s54.12,104.55,0,119.12-83.68-30.76-105.33,36.66,3.34,69.5-9.15,82-20.6,25-35.28,14.57,6.28-19.94-45.83-22.46-55.67-6.68-96.56,3.72-61.23,18.74-57.31-20.81,28.91,16.65,3.93-39.55-43.63-95.75-8.28-99.91S980.71,44.19,980.71,44.19Z"/><path class="cls-2" d="M254.62-.31s61.26-83.34,150.62,5.74c25,24.92-88.67,25.24,6.37,98.48s-35.79,193.51,90.65,179,124-30.51,133.78-61.2,100-26.14,98.77-18.41,19.75-37.72,24.76,25.37,78.57,47.41,78.57,47.41,93.43-30,125.11,9.06S994.63,378,994.63,378s53,45,37.29,67-125,34.71-135.67,31.52S763.67,530.57,732.43,445,693,245.46,657.2,289.07s-92.42,96.48-136.45,34.57c-36.76-51.7-52.14-27.54-134.31-36.55S313.09,207.22,258.78,167.6c-38.35-28-56.18-48.15-39.95-114.16S254.62-.31,254.62-.31Z"/><path class="cls-3" d="M-9.65,148.16s119.1-33,207.69,48.25-24.16,63.49-24.16,63.49S127.42,336.09,198,310.69s126-76.18,136.84-63.49,87.67-45.71,100.6-38.09,43.35-11.61,66.66,19.59S620,275.85,620,275.85,702,303.67,759.57,228.7s-21.49-55.48-21.49-55.48-42.54-31.84,8.5-33.53,113.63,28.79,113.63,28.79l35.9,45.17s17.29,56.65,58.49,38.41,118.32-32.85,112.44-68.91,83.88-50.23,97.24-27.37,80.13,60.95,103.24,55.87,45.91-38.09,73-25.4,0,110.18,0,110.18-96.42,54.9-201.56,29.5-141.2,16.92-141.2,16.92,6.1,49.41-68.79,49.26-67.58-16-93.06-30.94-76.46-62.06-109.52-22.51,14.54,76.51-7.79,75.81S664,431.8,651.21,410.61s-51-45.45-70.14-15.64-16.35,37-51.39,27.15S461.07,404.8,435.48,406s-57,13.1-73.38,4.61S342.65,376.74,305.66,378s-55.65,6.36-92.54,0-60-3.82-93.4-19.05-45.88-17.78-82,5.08-56.17,20.71-56.17,20.71Z"/><path d="M455.22,511.45c5.57,1.32,11.26,2.12,16.89,3.23a14.07,14.07,0,0,1,4.24,1.34c4.18,2.36,8.63,2,12.94,1.08,1.61-.32,2.87-2.32,4.68-3.9l-4.19-2.2h2.52c1.59,0,2.12-.6,1.77-2.22a31.92,31.92,0,0,1-.32-4.48l-1.43-1.07,4.82-2.67a15.94,15.94,0,0,1-.41,3.44c-.71,1.94-1.14,7.91,1.42,9.57,1.21.8,3.29,1.4,4.5.91,18-7.3,35.87-14.82,53.81-22.22,4.43-1.83,6.37-5.43,6.8-9.76,1.67-16.83,3.28-33.67,4.54-50.54.22-2.94.65-4.84,2.78-7.18a182.66,182.66,0,0,0,15.29-19.45c2-3,2.54-7,3.66-10.36l.86,9.38,1.25-.08c.2-13.64-.85-27.42,3.93-40.83l1,1.58c.57-1.54,1.07-2.89,1.59-4.31.22.62.4,1.14.79,2.27l.89-2.44c.22-.65.45-1.3.68-2,.32.92.66,1.86,1.27,3.55.68-2.64,1.18-4.55,1.74-6.73.3.66.52,1.17,1,2.29l1.58-5.17c.35,1.17.63,2.1,1.13,3.74.74-2.51,1.29-4.4,1.94-6.59.31,1,.55,1.8.8,2.59l.61,0c.5-1.81,1-3.62,1.66-6.06.25,1.34.39,2.11.53,2.88l.72.17,1.59-5.3c.33,1,.66,2,1,3l.65.06c.18-1.33.44-2.65.51-4s-.09-2.75-.08-4.12c0-2.41.65-4.2,4-3.08.08-1.21.18-2.17.21-3.14.21-8.65.74-17.32.47-26a26.59,26.59,0,0,1,1.15-9.95c2.31-6.74,3.5-13.88,5-20.88a65.52,65.52,0,0,0,.71-7.39c1.56,10.29,3,19.9,4.47,29.52l1.26-.1c-.08-1.64-.06-3.3-.26-4.94s-1.06-3.2-.87-4.7c1.48-11.58,3.25-23.12,4.72-34.7,2.65-20.82,5.16-41.67,7.74-62.5.46-3.66,1-7.31,1.42-10.33,3.06,35.7,6.17,72,9.29,108.36h.72a11.32,11.32,0,0,0,.31-1.74c.13-6.87.29-13.74.29-20.6,0-1.2-.69-2.39-1.17-3.94,5.35-12.22,6.63-25.92,8.35-40.25a14.28,14.28,0,0,1,.68,2c1.45,10.41,2.81,20.84,4.4,31.22.28,1.89,1.69,3.58,2.27,5.45a6.5,6.5,0,0,1-.29,3c-.13.64-.7,1.22-.71,1.83q-.11,17.74-.11,35.49c0,1.37,0,2.83,2,3,.42,0,1,1.2,1,1.87.14,2-.13,4,.09,5.93a21.9,21.9,0,0,0,1.27,4.18c.06.18.28.31.33.49.71,2.8,1.38,5.61,2.12,8.41.18.7.54,1.93.85,1.94,4.22.12,4.15,3.64,3.49,5.76-1.36,4.37,2.62,7.38,2.09,11.48,3.81-4.4,2.49-10.38,5.21-15.34.75,3.91,1.46,7.66,2.33,12.2l1.75-3.25,1.6,6.22,2.66-11c1.14,6.26,2.28,11.63,3,17.06a52.79,52.79,0,0,1,.18,8.89c-.16,6.28-.74,12.57-.6,18.84.23,10.53-.33,21-.62,31.56-.08,2.73.6,3.71,3.54,4,5.84.52,10.55-2.57,15.72-4.14,3.71-1.13,7.29-2.67,11-3.86a2.67,2.67,0,0,0,2.16-3c.06-10.85.53-21.7.3-32.54-.23-10.55.64-21,.6-31.57s.24-21.1.37-31.65.19-21.3.41-31.95a7.76,7.76,0,0,0-2.12-5.6,8.44,8.44,0,0,1-2-5c0-11.15.31-22.29.32-33.44,0-1.85-1.13-3.67-1.49-5.55-.29-1.51-.74-3.33-.19-4.61,1.44-3.37,3.69-6.4,5-9.8a23.86,23.86,0,0,0,1.22-7.73c.06-1.6-.73-3,1.83-3.46.78-.14,1.43-2.38,1.67-3.74a12.31,12.31,0,0,0-.22-4.15c-.3-1.74-.47-3,1.91-3.49.68-.12,1.36-1.85,1.5-2.91a17.46,17.46,0,0,0-.11-5c-.29-1.77-.41-2.89,1.82-3.58.87-.27,1.42-2.42,1.61-3.78a20,20,0,0,0-.35-4.44c-.13-1.32-.25-2.29,1.58-2.91,1-.34,1.72-2.36,2-3.72a15,15,0,0,0-.36-4.43c-.21-1.58-.41-2.94,1.93-3.16.6,0,1.39-1.58,1.51-2.5a19,19,0,0,0-.12-5c-.28-1.82-.52-3.06,2-3.72,1.85-.5,1.41-2.61.22-3.65a7.55,7.55,0,0,1-2.81-7.37,2,2,0,0,0-.54-1.62c-2.91-2.17-2.32-5.27-2.29-8.2.09-8,.66-16,.21-23.88-.39-6.94,3.57-12.64,3.71-19.3h1L754,85.63l1.8-2.45c.82,3.48,1.58,6.67,2.34,9.86h.75c.55-2.23,1.1-4.46,1.58-6.43l4.16,18a19.13,19.13,0,0,0,1.09-2.17c4.9-17.23,9.75-34.47,14.69-51.69,2-6.93,4.35-13.75,6.17-20.73.51-2-.29-4.28-.51-6.43,0-.47-.48-1.26-.35-1.35,3.24-2.34,1.27-5.82,2-8.69,0-.07.15-.11.83-.53v2.53c-.08,2.21-1,4.55,1.13,6.4a1.43,1.43,0,0,1,.2,1.35c-3.54,3.32-1.39,7.27-.67,10.63,1.5,7.06,3.93,13.92,5.89,20.88Q806,93.18,816.81,131.54a40.54,40.54,0,0,0,1.87,3.94,18.47,18.47,0,0,1,.55,2.45c.83,3,1.67,6,2.54,8.94a15.39,15.39,0,0,1,.58,1.86,32.4,32.4,0,0,0,.63,5c1.72,5.55,3.73,11,5.41,16.58.76,2.52.83,5.25,1.52,7.8,1.94,7.3,4.09,14.54,6.07,21.83s4.21,14.46,8.2,20.93a5,5,0,0,1,0,5.52,14,14,0,0,0-1.73,6.11c-.09,10.55.06,21.1.19,31.65,0,2.47-.18,4.68-2.33,6.38-1.73,1.38-2.17,3.31-2.17,5.58q.11,40.75,0,81.52c0,2.61.53,3.69,3.47,3.54,10.34-.49,20.69-.76,31-1,2.32,0,3.12-.74,3-3.12-.2-5.07-.12-10.15-.17-15.23,0-1.85.35-3.78-1.72-5.05-.39-.24-.4-1.67-.13-2.37,5.41-13.81,7.48-28.42,10.5-42.82,3.37-16.06,7.18-32,10.75-48q2.11-9.45,4-19a104.26,104.26,0,0,1,2.23-10.93,26.61,26.61,0,0,1,.55,3.56c.27,10.51,3.82,20.31,6.34,30.34,1.74,7,3.22,14,4.82,21,.09.39,0,1,.24,1.14,3.95,2.84,1.75,7.18,2.64,10.75s1.51,7.16,2.19,10.75c1.37,7.13,2.38,14.35,4.13,21.39s4.22,14.07,6.5,21.05c.43,1.34.79,2.21-.49,3.38a5,5,0,0,0-1.33,3.41c.16,20.61.43,41.21.63,61.81a3.44,3.44,0,0,0,2.45,3.6c2.73,1.09,5.39,2.35,8.55,3.74-.16-4.92.6-9.3-3-12.93a7.22,7.22,0,0,1-1.69-4.53c-.29-6.66-.26-13.33-.47-20,0-1.43-.72-2.83-.94-4.28a20.92,20.92,0,0,1-.11-3.54c.06-2,.67-4.2.17-6.07a11.64,11.64,0,0,1,.59-7.76c4.61,1.17,4.92.89,6.09-3.6,4-15.7,8.21-31.37,12.27-47.06,2-7.61,4.17-15.18,5.59-22.89,1-5.46.85-11.13,1.26-16.7.19-2.73.48-5.44.87-8.15.44,7.29.64,14.61,1.43,21.86.42,3.81,1.79,7.53,2.85,11.25q7.66,26.83,15.41,53.65c.23.81.62,1.57,1.28,3.21,5-17.94,10.55-34.8,9.68-52.89.36,5.5.35,11.06,1.2,16.49,1,6.25,2.57,12.41,4.11,18.56s3.36,12.28,5.07,18.41a4.57,4.57,0,0,0,1.48,2.36,18.6,18.6,0,0,0,.2-2.11c-.49-20.9-.89-41.79-1.56-62.68-.31-9.83-1.4-19.64-1.62-29.47-.12-5.61,1-11.24,1.22-16.88.69-21,1.22-42,1.77-62.94a51.89,51.89,0,0,0-.42-5.29c3.63-1.18,5.46.27,5.1,4-.59,6.14-.58,6.23,5.63,5.71,7.67-.64,6.84,1.16,6.57-7.67-.09-3,.83-6,1.27-9,.48-3.22,1-6.44,1.4-9.5,1.07,4.68,2.37,9.42,3.17,14.25a47,47,0,0,1,.08,8.63c0,1.68.61,2.36,2.3,2.22,2.58-.22,5.19-.17,7.72-.62.76-.13,1.71-1.51,1.84-2.42,1.16-8.47,2.18-17,3.22-25.46,2.79-22.72,5.7-45.42,8.27-68.16,1-8.52,1.15-17.13,1.72-25.7,0-.32.39-.62.74-1.14.36.43.77.69.79,1,.34,4.89.36,9.83,1,14.68,1.55,11.63,3.31,23.23,5.15,34.82q6.48,41,13.13,81.92a10.06,10.06,0,0,0,1.79,4.26c.16-1.59.33-3.17.49-4.76h.82c.07.8.17,1.6.19,2.41.16,6.56.38,13.12.42,19.69,0,2,1.2,2.44,2.66,3,3.91,1.53,5.38,7.93,2,10.45-4.2,3.12-4.78,6.92-4.52,11.68.55,10,.68,20.09.9,30.14,0,1.84.32,3.33,2.23,4.08a2.37,2.37,0,0,1,.91.75c1.48,1.86.83,10.94-.61,12.86a7.84,7.84,0,0,0-1.82,4.34c.4,16.61,1,33.22,1.46,49.84,0,1.23-.07,2.87-.81,3.65-2.06,2.17-1.84,4.65-1.77,7.23.34,12,.69,24.07.92,36.11,0,2.38.68,3.27,3.27,3.2,33.24-.92,66.49-1.68,99.73-2.57,15.32-.41,30.64-1,46-1.45a6.68,6.68,0,0,1,4,1.42c6.52,5.22,12.91,10.6,19.36,15.92.52.43,1.11.77,1.91,1.33a85.05,85.05,0,0,0-.08-9.58c-.35-2.95.68-6.22-1.75-8.85-.32-.34.26-1.65.59-2.44,5.45-12.95,8.2-26.58,9.92-40.43.5-4,.07-8.19.58-12.33-.39,15.35,5.26,29.26,10.11,43.33,1.09,3.15,3.18,5.95,4.63,9a5.43,5.43,0,0,1,0,2.83,19.46,19.46,0,0,0-.62,3.11c.63,14.21,1.36,28.42,2,42.64.09,1.9.89,2.87,2.49,3.93a33.07,33.07,0,0,1,6.3,5.63c2.63,3,3.4,3,7.12,1.59,8.4-3.16,16.47-7.56,25.64-8.09,2.41-.14,4.92,1.13,7.37,1.78s4.92,1.3,7.35,2c1,.3,2,.86,3,1.19,2.09.68,4.22,1.28,6.33,1.91V756.47H-11q0-52.41.05-104.81,0-19.86.21-39.71c0-2.49-1-5.94,3.67-5.61-.53-.08-1.06-.21-1.6-.25-2.11-.14-2.56-1.05-1.62-3a10.88,10.88,0,0,0,.43-3l.69-.19c-.55-1.2-1.52-2.33-1.52-3.46q-.13-59.67-.07-119.34c0-16.31.3-32.63.52-48.94a10.58,10.58,0,0,1,.93-2.85c.79.76,2,1.39,2.28,2.3.89,2.85,3.23,3.38,5.39,3,3-.46,5.07.18,6.71,3l2-2.48c2.35,2.3,4.57,4.68,7,6.76a6.17,6.17,0,0,0,3.52,1c2.41.08,4.83-.32,7.22-.13,1,.08,1.92,1.17,2.88,1.81.61.4,1.4,1.28,1.79,1.13,3-1.14,4.41.85,6,2.72a15.33,15.33,0,0,0,1.26,1.33c1.17-1.64,2.07-3.39,3.43-4.59.75-.66,2.35-.68,3.46-.44.36.07.64,1.91.46,2.84-.39,2-1.09,4-1.72,6.13,2.69.66,4-.77,5.14-2.89a5.29,5.29,0,0,1,7-2.15,37.89,37.89,0,0,0-2.93,4.48c-.75,1.53,0,2.81,1.66,3.15a40.54,40.54,0,0,0,5.6.66c4.2.23,5,1.29,4.36,5.47-.09.52.46,1.14.69,1.73a9.72,9.72,0,0,1,1,2.66c.27,4.5.36,4.62,4.21,2.41,1.75-1,2.58-.4,3.07,1.29s-.3,2.56-1.92,2.47c-3-.16-4.77.86-5,4.11,0,.58-1.08,1.67-1.4,1.58a4.87,4.87,0,0,1-2.62-1.57c-2.4-3.35-2.37-3.46-6-1.57A12,12,0,0,1,46,472.7a4.44,4.44,0,0,0-5.28,1.54c-.74.91-2.29,1.22-3.53,1.64a12.83,12.83,0,0,0-3,1c3.47.13,7,1.48,10.31-.6.49-.3,1.91-.14,2,.14.8,2.16,2.17,1,3.61,1.06a63.3,63.3,0,0,1,9.89,1.2c6.42,1.09,12.79,3.21,19.23,3.38a182,182,0,0,1,31.66,3.34c10.86,2.21,21.91,3.49,32.9,5,2.09.28,4.3-.51,6.46-.57,7.71-.22,15.5.94,23.06-1.55,1.88-.62,3.78-1.67,5.66-1.65a13.87,13.87,0,0,1,6.52,1.68c3.69,2.15,7.3,1.89,11.22,1.09,4.08-.84,8.26-1.78,12.38-1.66,6,.16,12.06.82,17.5,3.76,10.35,5.6,21.64,7.31,33.11,8.69a55.54,55.54,0,0,0,20.39-1.05,1.47,1.47,0,0,1,.88,0c5.91,2.34,12.28,1.42,18.35,2.59a5.22,5.22,0,0,1,1.65.65,14.6,14.6,0,0,0,11.66,2c4.43-1,8.08,1.89,12.06,3.39a57.57,57.57,0,0,0,14.53,3.41c8.21.82,16.5.93,24.76,1.24a19.23,19.23,0,0,0,4.27-.63c3.86-.77,7.68-1.82,11.57-2.34,4.81-.64,9.68-.85,14.51-1.28s9.48-.74,14.18-1.38a10.34,10.34,0,0,0,5.08-2c5-4.19,10.32-6.34,15.88-3.55M927.61,406v10a2,2,0,0,0,.75,1.5c3.16,1.53,6.38,2.94,10.1,4.62,0-2.77.14-4.85,0-6.9-.14-1.63-.14-4.05-1.13-4.69C934.56,408.71,931.31,407.65,927.61,406Zm-195.87.5-17.93,6.65a11.32,11.32,0,0,0,2.38,1c3.13.15,6.27.26,9.4.32,7.75.16,7,2,6.63-7.23a5.11,5.11,0,0,0-.48-.73Zm196.51,26c-.67,4.44-.63,4.34,2.66,5.89,3.09,1.46,7,2.08,7.62,6.58a59.26,59.26,0,0,0,.14-7.05,1.91,1.91,0,0,0-1-1.34c-3-1.4-6.09-2.68-9.42-4.11ZM1096,425.69a23.31,23.31,0,0,0,.72,5.39c.19.53,2.14.4,3.27.58C1100.78,426.06,1100.55,425.65,1096,425.69Zm72.22-1.19h-3.68c-.8,5.45-.31,6.16,3.94,5.41,0-1.77-.14-3.59-.22-5.41Zm69.92,4.26a57.74,57.74,0,0,0-1.25-5.84,5.19,5.19,0,0,0-2.59.25,41.86,41.86,0,0,0-.46,5.59Zm-96.46-3.86c-.8,5.13-.42,5.68,3.56,5.53,1.22-4.82.58-5.87-3.52-5.53Zm69-1.16c-.82,5.43-.31,6.14,3.57,5.13.82-5.22.56-5.6-3.49-5.13Zm-90.33,1.9-1.34.13.47,4.84,1.21-.12c0-1.62-.15-3.24-.26-4.85Z"/><path class="cls-4" d="M393.93,606.18a1.5,1.5,0,1,0-1.5-1.5A1.5,1.5,0,0,0,393.93,606.18Z"/><path class="cls-5" d="M396.51,605.41a1.5,1.5,0,1,0-1.5-1.5A1.5,1.5,0,0,0,396.51,605.41Z"/><circle class="cls-6" cx="396.87" cy="600.51" r="8.37"/></svg>