<svg id="Layer_1" data-name="Layer 1" xmlns="http://www.w3.org/2000/svg" width="461.1" height="153.02" viewBox="0 0 461.1 153.02"><defs><style>.cls-1{fill:#eae5e5;}.cls-2{fill:#fff;}</style></defs><path class="cls-1" d="M125.64,27.57V24.85c0-5.61,0-11.22,0-16.84,0-3.31-.88-4.39-4.13-5-.44-.08-.9-.14-1.33-.2-.46-2.93,4.32-3.87,8.36-1,4-2.75,8.94-2.08,8.46,1-5,1-5.5,1.55-5.5,6.73V27.28l23.14-5.11v-14c0-3.51-1-4.67-4.44-5.27-.35-.06-.7-.09-1-.14.25-3.3,4-3.72,8.43-.94,2.15-1.51,4.53-2.42,7.14-1.32.69.29,1.07,1.3,1.7,2.12-5.6,1.13-5.93,1.54-5.93,6.93V43.86c0,3.88.87,4.85,4.71,5.46a1.45,1.45,0,0,1,.88.91,6.13,6.13,0,0,1,0,1.66h-17c-.52-2.18-.42-2.34,1.72-2.64s3.69-1.61,3.72-3.66c.08-6.32,0-12.65,0-19.14-8,.45-15.33,3.56-23.1,4.85,0,4.68-.08,9.26,0,13.84.06,2.43,1.32,3.65,3.66,4.09s2.21.42,1.76,2.65H120.23c-.59-2.11-.49-2.27,1.77-2.64A3.88,3.88,0,0,0,125.64,45c0-4.41,0-8.83,0-12.77"/><path class="cls-1" d="M317.45,25.62c0-2.81,0-5.42,0-8s0-5.25-.12-7.88c-.1-3-.84-3.81-4-4.22l-.08-1.85a18.48,18.48,0,0,0,3.2-.49c1.3-.44,2.49-1.2,3.76-1.73.9-.37,1.85-.59,3.07-1V2.7c0,13.08,0,26.16,0,39.24A57,57,0,0,0,324,51c.72,4.36,2.08,5.25,6.55,5.1a3.19,3.19,0,0,1,.54.06c0,.18.09.31.05.37-1.52,2.37-3.93,2.13-6.22,2a3.94,3.94,0,0,1-3.8-2.89c-.08-.27-.26-.7-.44-.72-2.63-.34-2.68-2.48-3.08-4.37,0-.15-.07-.29-.15-.66A12.36,12.36,0,0,1,310,53c-7.57.67-13.14-3.13-14.8-10.49C294,37,294.36,31.75,298,27.1c4.2-5.34,14.5-6.45,18.74-1.91A3.93,3.93,0,0,0,317.45,25.62ZM300.54,37.94c.54,2.34.82,5.15,1.84,7.66a7.16,7.16,0,0,0,12.45,1.47c3.3-4.28,3.61-13.35.61-17.9a7.52,7.52,0,0,0-8-3.43c-3.1.48-4.89,2.53-5.68,5.4C301.2,33.2,301,35.35,300.54,37.94Z"/><path class="cls-1" d="M245.23,38.7c-3.46,2-3.48,5-3,8.06.33,2.3,2,3.21,4.2,3.43v1.69H232c-.34-1-.39-1.7,1.15-2,2.13-.36,3.08-1.74,3.09-4.13,0-5.1,0-10.2,0-15.29q0-9.51,0-19a14,14,0,0,0-.13-2.15c-.46-3-.89-3.41-4-3.84V3.66A24.75,24.75,0,0,0,235.79,3c1.26-.4,2.41-1.14,3.63-1.66C240.18,1,241,.84,242,.5V35.68l.49.33a7.22,7.22,0,0,1,.57-1c2-2.52,4.21-5,6.12-7.56a12.48,12.48,0,0,1,5.77-4.1c2.5-1,4.41.19,4.72,3.06-3.07-1.24-4.65.93-6.34,2.76-1.34,1.43-2.57,3-3.91,4.38a1.08,1.08,0,0,0-.07,1.69c3.14,4,6.17,8,9.39,11.87,1,1.18,2.51,1.88,3.69,2.91a8.13,8.13,0,0,1,1.19,1.91H249V50.25l.76-.24c1.88-.52,2.37-1.56,1.28-3.19C249.16,44.06,247.15,41.38,245.23,38.7Z"/><path class="cls-1" d="M200.35,50.35v1.56H190.27l-.2-2.62c-1,.77-1.91,1.45-2.8,2.16-3.92,3.11-13.89,2-15.69-5a8.49,8.49,0,0,1,6.36-10.77,17.57,17.57,0,0,1,10.61.5c.39.14.77.27,1.17.39.08,0,.19,0,.37-.09a17.2,17.2,0,0,0-.85-7.53,5.87,5.87,0,0,0-9.16-2.21,3.38,3.38,0,0,0-1.3,3.27c.14.87-.21,1.18-1,1.38-2.06.5-3.91-.29-4.4-2.05-.58-2.07.48-4.12,2.48-4.38.15,0,.37,0,.44-.13,1.73-2.62,4.52-2.25,7.07-2.42a15.48,15.48,0,0,1,3.53.2c5.4.9,8.37,4.11,8.82,9.89.3,3.84.26,7.7.3,11.56C196.06,48.51,196.29,48.9,200.35,50.35Zm-10.19-7.73a7.94,7.94,0,0,1,0-1.38,2,2,0,0,0-1.87-2.57,36.15,36.15,0,0,0-5.12-.83,5.45,5.45,0,0,0-5.69,4.58c-.46,3.56,1.2,6.45,4.21,7.31C186.11,51,190.16,47.59,190.16,42.62Z"/><path class="cls-1" d="M270.79,38.1c.28,3.94.32,8,4,10.72a6.73,6.73,0,0,0,10.27-2.94c.26-.61.11-1.71,1.37-1.42s2.4.67,2.61,2.2A4.29,4.29,0,0,1,287,51c-8.69,6.08-21.33.22-22.33-10.3a21.29,21.29,0,0,1,1.12-10.3c2.23-5.49,7.36-8.42,13.81-8,1.62.11,3.37,0,4.28,1.83.08.17.43.25.66.29a5.52,5.52,0,0,1,4.78,4.62,6.66,6.66,0,0,1-2.53,7.12,13.36,13.36,0,0,1-8.28,2.46C276,38.73,273.51,38.33,270.79,38.1ZM277.74,36l0-.15,1.23-.12c3.16-.25,4.61-1.81,4.47-4.85-.15-3.41-1.87-5.27-4.92-5.27a5.88,5.88,0,0,0-5.72,3.2,34.71,34.71,0,0,0-1.68,4.75c-.35,1,.19,1.59,1.14,1.73C274.09,35.52,275.92,35.72,277.74,36Z"/><path class="cls-1" d="M221.71,33.41A14,14,0,0,0,223.09,30c.3-2.45-1.09-4-3.54-4.34-3.88-.55-6.72.87-8.16,4.52a19.38,19.38,0,0,0,.19,15.6,7.53,7.53,0,0,0,9.54,3.78A5.74,5.74,0,0,0,224.5,46c.27-.71.48-1.45.71-2.17,2.86.79,3.7,3.39,1.93,5.79-1.44,1.95-3.55,2.7-5.81,3.19-6,1.29-12.17-.81-15.14-5.22a16.64,16.64,0,0,1-2.51-10.77,20.79,20.79,0,0,1,1.16-5.7c3-8,10.83-9.65,16.76-8.32A18.3,18.3,0,0,1,227,25.48c2.19,1.39,1.63,5.69-.73,7.22A5.77,5.77,0,0,1,221.71,33.41Z"/><path class="cls-2" d="M13.54,126.55c-.54-3.71-.54-3.71,3.08-4.31s5.84-2.75,5.89-6.14c.11-7.22,0-14.43,0-21.65,0-.23-.16-.46-.46-.06C17.46,93,12.75,92,8.29,90.23A12.72,12.72,0,0,1,.94,82.37c-1-2.93-1.1-5.75.93-8.29C-1.24,67.62-.45,62.83,4.1,60.4c4.08-2.17,7.88-.95,10.7,3.52-4.94,4.53-7.42,9.9-4.69,16.57,1.57,3.87,6.52,6.29,12.34,6.28,0-.86.11-1.73.11-2.61,0-9.56-.18-19.13.07-28.69.18-6.82-3.06-7.92-7.43-8.71-.49-.09-1-.11-1.47-.15,0-2.71,1-4,3.5-4.34a12.67,12.67,0,0,1,10.06,2.78c7.19-4.54,13.09-3.94,13.85,1.32-.14.1-.26.25-.4.27-7.31,1-8.62,2.49-8.62,9.88V86.26c1-.12,1.79-.14,2.52-.3,11.59-2.58,23.17-5.18,35.07-7.84v-14c0-3.11,0-6.21,0-9.32,0-5.17-1.37-6.81-6.5-7.87-.73-.15-1.48-.23-2.21-.34-.07-2.64.85-3.88,3.33-4.3A12.55,12.55,0,0,1,74.39,45c7.89-4.36,12.77-3.88,14.07,1.48-1,.21-2,.39-3.07.62-4.56,1-6.07,2.83-6.08,7.49q0,27.95,0,55.89c0,1.6-.06,3.2,0,4.79.25,4.43,2.46,6.66,6.92,7,.66.06,1.31.14,2.12.23v4.41c-1.82-.08-3.61-.24-5.41-.23-6.52,0-13,.05-19.56.28-2.29.08-3.45-.54-2.86-2.88a2.66,2.66,0,0,1,1.71-1.73c5.82-.73,7.43-2.42,7.44-8.25q0-13.22,0-26.44c0-.81-.08-1.63-.16-3.18-7.21,1.58-14.13,3-21,4.61-4.9,1.11-9.76,2.41-14.66,3.48a1.84,1.84,0,0,0-1.75,2.18c0,6.8,0,13.6,0,20.39.05,4.09,1.94,6.21,5.85,7,3.5.72,3.5.72,3.12,4.36Z"/><path class="cls-2" d="M189.3,123.67c-7.6,6.57-20.69,5.67-26.93,1.47-5.6-3.78-8.45-9.15-9.51-15.62-1.31-7.94-.78-15.58,4.16-22.34,5.86-8,18.76-11.28,27.66-6.91,2.12,1,3.89,2.81,5.47,4,1.87-1.32,3.67-3.11,5.83-3.94s4.69-.71,7.23-1v3.39c-2.69.4-3.43,2.42-3.52,4.83-.25,6.54-.57,13.07-.68,19.61-.14,8.72,0,17.45-.19,26.17-.25,10.75-5.5,16.93-16.15,18.94a39.71,39.71,0,0,1-17.22-.31c-2.37-.6-4.68-1.45-5.74-4a1.38,1.38,0,0,0-.85-.79c-3.36-.67-4.23-3.25-4.14-6,.09-3.09,2.2-5,5-5.92a27.78,27.78,0,0,1,3-.65c.17,1.2.28,2.18.45,3.15,1.24,7,6.33,10.88,13.47,10.21,7.74-.72,11.94-5.32,12.54-14C189.48,130.62,189.3,127.36,189.3,123.67ZM162,102.31c.65,4.25.83,7.64,1.73,10.82,1.44,5.11,4.45,9,10.07,10.06,5.35,1,9.72-.64,12.94-5.17,4.85-6.81,4.94-21.56.41-28.59C181.74,81,168.05,82.17,164.72,91,163.27,94.84,162.77,99,162,102.31Z"/><path class="cls-2" d="M209.63,87.17V84.06a22.08,22.08,0,0,0,12.65-4.21c.84-.56,2.23-.28,3.71-.42,0,1.27,0,2.25,0,3.23.15,8.8,0,17.62.59,26.4a26.55,26.55,0,0,0,3.15,10.17c2.19,4.2,7.07,4.92,11,2.19,3.53-2.44,5.22-6.14,6.23-10.06a48,48,0,0,0,1.27-19.2c-.5-3.35-1.38-4.37-4.76-4.68-2.51-.23-1.46-1.85-1.62-3.43,4.81.08,8.88-1.66,12.72-4.19.84-.55,2.21-.29,3.65-.44,0,1.23,0,2.13,0,3,.14,8.55,0,17.12.55,25.64a28.12,28.12,0,0,0,2.88,10.54c2.68,5.37,9,6,12.83,1.29a23.16,23.16,0,0,0,4.11-7.93A41.39,41.39,0,0,0,280,93.84c-.94-6.47-4.1-9.68-10.63-10.91a7.47,7.47,0,0,1-1.14-.45c2.85-4.63,9.19-5.33,12.62-1.51.26.3.58.69.92.75,3.39.63,4,3.22,4.22,6,.83,9.52.51,19-2.63,28.07-4.63,13.43-17,14.58-25.14,11.09-3.55-1.52-5.42-3.81-7.84-9.24-.5.85-.89,1.5-1.26,2.17-5.43,9.82-16.5,10-23,7.29-5.16-2.19-7.61-6.8-8.54-12a124,124,0,0,1-1.17-13.24c-.19-2.67-.05-5.37-.35-8C215.49,88.28,215.19,88.05,209.63,87.17Z"/><path class="cls-2" d="M342.81,126.59H325.53c-.06-1.21-.13-2.52-.22-4.25-1.65,1.29-3,2.42-4.45,3.46-6.65,4.84-18.63,3-23.43-3.52-6.07-8.27-2-19.42,8.11-22.12a28.68,28.68,0,0,1,17,.69l2.7,1c.23-5.24.54-10.23-2.37-14.67-3.05-4.66-11.3-5-14.69-.56a6.66,6.66,0,0,0-1.18,4.17c.1,1.72-.52,2.17-2,2.47-3.31.68-6.08-.64-6.89-3.43-.94-3.23.55-6,3.85-7.07.31-.1.8-.07.94-.27,3-4.48,7.76-3.55,12-4a20,20,0,0,1,5,.32c9,1.45,13.9,6.74,14.61,16.46.47,6.51.32,13.07.4,19.61.07,5.82.7,6.65,6.13,8.81C341.87,124,342.14,125.35,342.81,126.59ZM325.42,112.2a20.43,20.43,0,0,1,0-3.13c.44-2.42-.7-3.64-2.92-4a58.17,58.17,0,0,0-8.63-1.35,8.91,8.91,0,0,0-9.08,7.47c-.84,5.11,1.8,10.12,6.23,11.66a9.87,9.87,0,0,0,9.57-1.26C323.92,119.09,326.51,116.2,325.42,112.2Z"/><path class="cls-2" d="M119.62,78.42C135,78.59,144.35,89.07,144,104c-.37,14.26-10.43,24.63-24.42,24.55-14.53-.08-24.46-10.74-24.38-26.17C95.25,88.15,105.26,78.34,119.62,78.42ZM134,101.78a62.92,62.92,0,0,0-1.76-8.6c-1.56-4.79-4.66-8.34-9.93-9.26-5.47-1-10.13.44-13.51,5.1-5.08,7-4.61,22.71.86,29.57a12.53,12.53,0,0,0,21.16-2C133.14,112.36,133.71,107.75,134,101.78Z"/><path class="cls-2" d="M431.88,111.05c0,.08.07.17.05.24-1.26,3.68-1.73,7.23,1.86,10,3.22,2.49,10.15,2.94,13.43.93,4.1-2.52,4.63-8.44.69-11.27-2.53-1.82-5.57-3-8.44-4.31s-5.91-2.37-8.66-3.92c-4.51-2.55-6-6.71-5.61-11.75.38-4.87,3.11-8.06,7.21-10.14a22.09,22.09,0,0,1,14.44-2,31.35,31.35,0,0,1,9.34,3.71c4.11,2.37,3.95,9.25-.18,11.72-1.66,1-3.71,1.34-5.59,2l-.37-.79c.27-.37.53-.74.81-1.11,2.73-3.59,1.47-8.56-2.88-9.74a23.14,23.14,0,0,0-8.63-.31,5.23,5.23,0,0,0-4.5,4.51c-.49,2.71.11,5.11,2.7,6.46s5.14,2.39,7.76,3.49c2.85,1.2,5.86,2.07,8.59,3.49,5.29,2.75,7.73,7.26,7.11,13.25-.61,5.82-4,9.42-9.33,11.34a28.65,28.65,0,0,1-15.08,1.36,35,35,0,0,1-8.56-3.06c-3.07-1.48-4.37-5.8-3.22-9.46C425.81,112.45,428.39,110.78,431.88,111.05Z"/><path class="cls-2" d="M397,84.57h-3.34c-3.59,0-3.59,0-3.46-3.56,0-.4.09-.81.14-1.31,7.61-.57,10.22-6.18,12.41-12.16.65-1.77,1.2-3.44,3.85-2.33V79.79a81.84,81.84,0,0,0,8.21-1.68c2.39-.74,4-.44,5,1.61a3.39,3.39,0,0,1-1.94,4.94,30.81,30.81,0,0,1-6.59,1.23,38.59,38.59,0,0,1-4.46,0c-.06.91-.16,1.71-.15,2.52.06,10.82.06,21.63.28,32.44a26.15,26.15,0,0,0,1.42,7.35c1.18,3.71,3.82,4.83,7.49,3.66a8.22,8.22,0,0,1,2.28,0,6.93,6.93,0,0,1-.5,2.24c-3,4.89-10.54,4.8-13.62-.09a2.55,2.55,0,0,0-1.51-1,4.89,4.89,0,0,1-4.2-4.14A84.88,84.88,0,0,1,397,117.42C396.85,107.61,397,97.8,397,88Z"/><path class="cls-2" d="M346.67,85l16.26-5.81v9.08l.53.19c.61-1,1.18-2,1.83-3,2.95-4.41,6.64-7.71,12.41-6.8,1.54.25,2.92,1.53,4.37,2.36.27.16.45.55.73.61,3,.66,3.76,2.84,3.72,5.47a6.6,6.6,0,0,1-4.34,6.22c-1,.47-2.18.74-3.65,1.22,0-1.79.08-3.26,0-4.72a5.61,5.61,0,0,0-3.87-5.35c-2.42-.84-4,.63-5.39,2.28a26.28,26.28,0,0,0-5.77,15c-.4,4.5-.38,9-.39,13.56,0,5.1,1.19,6.51,5.88,8.3.76.28,1.08,1.74,1.74,2.91H346.6c0-.7-.08-1.59-.12-2.39.22-.2.32-.36.46-.4,5.67-1.44,6.53-2.55,6.53-8.54,0-7,0-14.08,0-21.12,0-4.75-1-5.87-5.44-7.26C347.32,86.62,347,85.44,346.67,85Z"/></svg>